<svg xmlns="http://www.w3.org/2000/svg" viewBox="0 0 1830 415"><defs><style>.cls-1{fill:#fff;}</style></defs><title>WIBK_Pencil_White</title><g id="Layer_2" data-name="Layer 2"><rect x="-36" y="-59.45" width="1911" height="525.32"/></g><g id="Layer_1" data-name="Layer 1"><rect class="cls-1" x="144.97" y="225.85" width="10.34" height="63.84" rx="0.56" ry="0.56" transform="translate(300.29 515.55) rotate(-180)"/><rect class="cls-1" x="164.66" y="225.85" width="10.34" height="63.84" rx="0.56" ry="0.56" transform="matrix(-1, 0, 0, -1, 339.67, 515.55)"/><path class="cls-1" d="M128.93,228.33H88a16.25,16.25,0,0,0-16.25,16.25V269A16.23,16.23,0,0,0,88,285.22h40.94a4.4,4.4,0,0,0,4.4-4.4v-48.1A4.4,4.4,0,0,0,128.93,228.33Zm-12.17,46.92H89.36a6.06,6.06,0,0,1,0-12.11h27.4a6.06,6.06,0,1,1,0,12.11Zm0-24.23H89.36a6.06,6.06,0,0,1,0-12.11h27.4a6.06,6.06,0,1,1,0,12.11Z"/><path class="cls-1" d="M1605.94,226.16H190a5.65,5.65,0,0,0-5.64,5.65v50A5.65,5.65,0,0,0,190,287.4h1415.9l121.87-20.62,0-20.4Zm-11.73,49.09H201.64a6.06,6.06,0,0,1,0-12.12H1594.21a6.06,6.06,0,0,1,0,12.12Zm0-24.23H201.64a6.06,6.06,0,0,1,0-12.12H1594.21a6.06,6.06,0,0,1,0,12.12Z"/><path class="cls-1" d="M1753.38,250.77l-18.29-3.13v18l18.34-3.35a5.84,5.84,0,0,0,0-11.51Z"/><path class="cls-1" d="M146.44,211.94c2.72,0,5.52.07,8.33.13,8.31.2,16.89.4,24.55-1.14,9.11-1.84,18.89-6.28,29.9-13.58,10.2-6.77,19.81-14.79,29.11-22.53,14.16-11.81,28.81-24,46.25-32.53a170.13,170.13,0,0,1,83.15-16.76c41.84,2.14,81.18,20.71,119.23,38.66l11.44,5.38c41.35,19.31,79.16,35.54,123.24,38.57,35.8,2.46,81.92-4,97.8-48.69a3.11,3.11,0,0,0,.05-.9A16.13,16.13,0,1,1,716,130.32s0,0,.05,0,.32.15.49.2l.1,0c8.84,2.78,16.69,15.55,10.79,31.77-19,52.19-74.64,56.51-106.38,54.31-45.54-3.13-84.12-19.67-126.26-39.35l-11.46-5.39c-37.3-17.6-75.87-35.81-116-37.87a162.27,162.27,0,0,0-79,15.91c-16.51,8.05-30.13,19.4-44.54,31.42-9.47,7.89-19.26,16.06-29.85,23.09C202,212.34,191.2,217.19,181,219.25a89.68,89.68,0,0,1-17.67,1.45c-2.93,0-5.86-.07-8.76-.14s-5.48-.13-8.13-.13a4.24,4.24,0,1,1,0-8.49Z"/></g></svg>