<svg xmlns="http://www.w3.org/2000/svg" viewBox="0 0 1830 415"><defs><style>.cls-1{fill:#6dcef5;}</style></defs><title>WIBK_Pencil_Black</title><g id="Layer_1" data-name="Layer 1"><path class="cls-1" d="M1608.59,228.36H191a3.47,3.47,0,0,0-3.47,3.47v50a3.47,3.47,0,0,0,3.47,3.47H1608.59"/><path class="cls-1" d="M1608.59,287.49H191a5.66,5.66,0,0,1-5.65-5.65v-50a5.66,5.66,0,0,1,5.65-5.65H1608.59v4.36H191a1.29,1.29,0,0,0-1.29,1.29v50a1.29,1.29,0,0,0,1.29,1.29H1608.59Z"/><rect class="cls-1" x="145.89" y="225.87" width="10.36" height="63.92" rx="0.56" ry="0.56" transform="translate(302.13 515.66) rotate(-180)"/><rect class="cls-1" x="165.6" y="225.87" width="10.36" height="63.92" rx="0.56" ry="0.56" transform="matrix(-1, 0, 0, -1, 341.55, 515.66)"/><path class="cls-1" d="M73.16,228.36H132a2.22,2.22,0,0,1,2.22,2.22v52.51a2.22,2.22,0,0,1-2.22,2.22H73.16a.6.6,0,0,1-.6-.6V229a.6.6,0,0,1,.6-.6Z" transform="translate(206.78 513.67) rotate(180)"/><path class="cls-1" d="M125.5,237.08v39.5H86a4.71,4.71,0,0,1-4.7-4.7v-30.1a4.71,4.71,0,0,1,4.7-4.7H125.5m5.09-8.73H86a13.43,13.43,0,0,0-13.43,13.43v30.1A13.43,13.43,0,0,0,86,285.31h44.6a3.63,3.63,0,0,0,3.63-3.63V232a3.63,3.63,0,0,0-3.63-3.63Z"/><path d="M1596.84,251.07H202.62a6.07,6.07,0,0,1,0-12.13H1596.84a6.07,6.07,0,1,1,0,12.13Z"/><path d="M1596.84,275.33H202.62a6.07,6.07,0,0,1,0-12.13H1596.84a6.07,6.07,0,1,1,0,12.13Z"/><path d="M117.64,251.07H90.2a6.07,6.07,0,0,1,0-12.13h27.43a6.07,6.07,0,0,1,0,12.13Z"/><path d="M117.64,275.33H90.2a6.07,6.07,0,1,1,0-12.13h27.43a6.07,6.07,0,1,1,0,12.13Z"/><polygon class="cls-1" points="1605.9 287.62 1728.46 266.89 1728.44 246.37 1605.9 226.05 1605.9 287.62"/><path class="cls-1" d="M1614.63,236.34l105.1,17.43v5.75l-105.1,17.78v-41M1605.9,226v61.57l122.56-20.73,0-20.52L1605.9,226Z"/><path d="M1735.79,247.65l18.39,3.14a5.87,5.87,0,0,1,0,11.57l-18.44,3.37Z"/><path class="cls-1" d="M147.35,211.95c2.72,0,5.52.07,8.34.13,8.32.2,16.91.4,24.58-1.14,9.12-1.84,18.91-6.29,29.94-13.59,10.21-6.78,19.84-14.8,29.14-22.56,14.18-11.83,28.85-24.06,46.31-32.57a170.34,170.34,0,0,1,83.25-16.78c41.89,2.15,81.28,20.73,119.37,38.71l11.45,5.38c41.4,19.33,79.26,35.58,123.39,38.61,35.84,2.46,82-4,97.92-48.75a3.12,3.12,0,0,0,.05-.9,16.15,16.15,0,1,1-3.5-28.27s0,0,.05,0,.32.15.49.2l.1,0c8.85,2.79,16.71,15.57,10.8,31.8-19,52.25-74.73,56.57-106.51,54.38-45.59-3.13-84.22-19.69-126.41-39.39l-11.48-5.4c-37.35-17.62-76-35.85-116.17-37.91a162.46,162.46,0,0,0-79.1,15.93c-16.53,8.06-30.16,19.42-44.59,31.46-9.48,7.9-19.28,16.08-29.88,23.11-12,7.93-22.74,12.78-33,14.84a89.79,89.79,0,0,1-17.69,1.45c-2.93,0-5.86-.07-8.77-.14s-5.48-.13-8.14-.13a4.25,4.25,0,1,1,0-8.5Z"/></g></svg>