<svg xmlns="http://www.w3.org/2000/svg" viewBox="0 0 1830 415"><defs><style>.cls-1{fill:#fff;}</style></defs><title>WIBK_Name_Pencil_White</title><g id="Layer_2" data-name="Layer 2"><rect x="-36" y="-59.45" width="1911" height="525.32"/></g><g id="Layer_1" data-name="Layer 1"><path class="cls-1" d="M95.31,184.47a20.44,20.44,0,0,0-.85-2.54c-1.23-2.17-1.51-4.52-2.17-6.87a72.38,72.38,0,0,0-2.64-8,49.73,49.73,0,0,1-1.51-5,24.22,24.22,0,0,0-1.41-4.43c-1.41-3.58-2.45-7.34-3.77-11-1.41-3.86-2.54-7.91-3.77-11.87-1.41-4.52-2.92-8.85-4.62-13.19a14.66,14.66,0,0,0-4-6.12A6.79,6.79,0,0,0,68.1,114c-1-.28-2.26-.47-3.39-.66a2.92,2.92,0,0,1-1.79-.85.8.8,0,0,1,0-1.22,3.5,3.5,0,0,1,3.3-.66,10,10,0,0,0,2.35.28c1.13.09,2.26-.66,3.39-.38a22.68,22.68,0,0,0,3.58,0c1.13.09,2.35,0,3.48.09s2.35.47,3.48,0a3.58,3.58,0,0,1,1.41-.09c3.77-.09,7.44-.09,11.21-.19a2.51,2.51,0,0,1,1.13.28,1.36,1.36,0,0,1,.85,1.13,1,1,0,0,1-.85,1l-2,.57a2.43,2.43,0,0,0-2,2.45,15.23,15.23,0,0,0,1.32,7.06l.57,1.69c.94,2.92,1.79,5.93,2.83,8.85.47,1.51,1.13,2.92,1.6,4.33,1,2.64,2.26,5.18,2.64,8a.35.35,0,0,0,.09.28,70.88,70.88,0,0,1,2.45,7.16,16.34,16.34,0,0,1,1,3.67,1.1,1.1,0,0,0,.75,1c.94-3.48,2-6.87,2.92-10.36.66-2.92,1.69-5.74,2.17-8.76a44.68,44.68,0,0,1,1.41-4.71l.85-3.39c.38-1.13.66-2.35.94-3.58-.47-1.51-.85-3-1.32-4.43-.57-1.69-1.13-2.73-1.7-4.43a7.42,7.42,0,0,0-5.93-4.9,2.21,2.21,0,0,1-1.13-.19,1.36,1.36,0,0,1-.85-1.13c0-.47.09-.85.47-.94,1.32-.47,2.73-1,4-.57,2,.66,4.05.38,6.12.38a31.64,31.64,0,0,0,6.69-.09,47.81,47.81,0,0,1,7.35-.09c2.64-.09,5.27-.09,7.91-.09.75,0,1,.38,1.13,1.13,0,.94-.47,1.69-1.13,1.79a19.6,19.6,0,0,1-2.35,0,2.65,2.65,0,0,0-2.26,1.23,5.72,5.72,0,0,0-.56,5.09c.28.94.56,1.32.85,2.17a42.59,42.59,0,0,1,1.88,6.78,8.29,8.29,0,0,0,.47,1.41c1.51,3.67,2.45,7.53,3.67,11.3.94,3.11,2,6.31,2.73,9.42.57,2.07,1.41,4,2.17,6,.09.19.38.28.47.38A7.69,7.69,0,0,0,144,154c.66-3.11,1.6-6,2.26-9,.66-2.83,1.7-5.56,2.17-8.48.19-1.41.94-2.73,1.22-4.14.75-3.2,1.6-6.4,2.45-9.61.19-.75-.47-1.51.09-2.26.19-.19-.09-.66-.09-1a7,7,0,0,0-4.43-5.46,5.57,5.57,0,0,1-1.32-.57,3.09,3.09,0,0,0-2.54-.38c-.19,0-.38.19-.57.19-.56,0-1.51-.75-1.51-1.22a1.83,1.83,0,0,1,1.32-1.51,8.81,8.81,0,0,0,2.26-.19c.75-.28,1.32.09,2,.09,2.17.09,4.33.19,6.5.09,2.92-.09,5.84.28,8.76-.38,2.07.85,4.14-.47,6.31-.19a2.49,2.49,0,0,1,1.79.85,1.12,1.12,0,0,1,.38,1c-.09.47-.47,1-.94.94a16.57,16.57,0,0,0-3.11.66,24.71,24.71,0,0,0-2.54.57,5.75,5.75,0,0,0-1.13.47,14.19,14.19,0,0,0-7.44,8.66c-.28.94-.47,2.07-.75,3-.85,2.83-1.6,5.65-2.45,8.48a105.36,105.36,0,0,0-2.83,11,10.32,10.32,0,0,1-.85,2.17c-.56,1.41-.56,3-1,4.43-1.32,4.14-2.26,8.29-3.2,12.43-.85,3.58-1.88,7.16-2.73,10.74-.66,3.2-1.7,5.84-2.45,9-.09.28-.09.56-.19.85a1.79,1.79,0,0,1-.66,1.6c-.66.47-1,.85-1.88.75-1.22-.09-2.35-.09-3.58-.19-.94-.85-.75-2.07-1.23-3.2-.47-1.51-1-2.54-1.6-4.14l-.28-.47c-.28-2.73-1.41-5.27-2-7.91a2.34,2.34,0,0,0-.09-.85c-1-1.79-1.13-3.86-2-5.74-1-2.35-1.69-4.8-2.54-7.16-1-3.39-2.35-6.78-3.11-10.26v-.28c-1.51-3-2.07-6.31-3.11-9.42-.38-1-.38-2.26-1.13-3.3a1.68,1.68,0,0,0-.85,1.13c-.66,3.11-2,6-2.64,9.23a68,68,0,0,1-2.07,7.53,24.24,24.24,0,0,0-.75,3.77,43.09,43.09,0,0,1-1.32,5l-3.67,13.47c-.57,2.17-.94,4.43-1.41,6.59-.38,1.6-.75,3.2-1.23,4.8a1.76,1.76,0,0,1-1.88,1.41h-.66C95.88,187.58,96.45,187.77,95.31,184.47Z"/><path class="cls-1" d="M174,184.75a1.75,1.75,0,0,1,1.13-1.51,2.32,2.32,0,0,1,1.13-.09c1.6.28,2.83-.38,4.14-.94a4,4,0,0,0,2.45-3.77,9.56,9.56,0,0,0,.09-2.83c-.09-1,.56-2.07.47-3.2-.09-1.32,0-2.73,0-4.05-.38-5.56.28-8.66,0-13-.38-5.56.09-13.37-.19-15.63,0-1.13,0-5.56.19-7.82.09-1.69-.19-3-.09-4.9.09-2.45.09-4.8.09-7.16a12.32,12.32,0,0,0-.56-3.48c-.38-1.79-1.7-2.45-3.39-2.73a19,19,0,0,0-3.3-.09c-1,0-1.23-.38-1.88-1a.75.75,0,0,1,.19-1.22,4.48,4.48,0,0,1,2.26-.57,48.79,48.79,0,0,1,5.27-.09c3.11.38,5.46,0,8.19,0a12.35,12.35,0,0,0,2.64.09,14.24,14.24,0,0,1,2.83.19h5.65c.85-.09,1.7,0,2.64-.09a18.14,18.14,0,0,0,2.26-.09,2.39,2.39,0,0,1,2.07.75,1,1,0,0,1-.38,1.69,2.75,2.75,0,0,1-.85.19c-1.32-.19-2.45.47-3.67.57a2.64,2.64,0,0,0-2.17,1.88,11.38,11.38,0,0,0-.75,4V130.7c0,1.13-.28,2.26-.19,3.39a20.39,20.39,0,0,1,.09,3.39c-.38,2.17,0,4.24,0,6.4,0,.38.09.75.09,1.13s.19.66.47.66a11.72,11.72,0,0,0,3.11.19c1-.19,1.88.38,2.83,0a10.12,10.12,0,0,1,2.92-.09c4,0,8.1,0,12.06-.09a8.1,8.1,0,0,0,1.51-.09c.47,0,.66-.28.66-.75v-2c0-3.48.38-5.84-.09-8.66a19.45,19.45,0,0,0,.09-4.61v-2.36c0-2.07-.09-4,0-6.12a10,10,0,0,0-1.51-5,3.67,3.67,0,0,0-3.3-2.07c-.94-.09-1.79-.57-2.83-.28-.66.09-1.22-.57-1.51-1.13s-.09-.75.19-1.13a1.52,1.52,0,0,1,1.22-.57h4.43a7.71,7.71,0,0,0,2.92-.28,9.66,9.66,0,0,1,1.6.09,184.73,184.73,0,0,0,20.34-.28,8.44,8.44,0,0,1,4,.47c.57.28.85.57.85,1s-.57,1.32-1,1.32a19.62,19.62,0,0,1-2.35,0,4.35,4.35,0,0,0-3.67,1.88,7.56,7.56,0,0,0-1.69,4.33c0,3-.09,6.12-.09,9.14,0,1.69,0,3.48.09,5.27a46.77,46.77,0,0,0,.38,7.25c.38,2.07-.28,4.71-.28,6.88s.09,4.52,0,7c0,.85.38,1.51.38,2.26a23.16,23.16,0,0,1-.19,2.64c-.19.75.28,1.51-.19,2.26-.19.19-.09.57-.09.85a9.72,9.72,0,0,0,.38,2.83c.09.94-.57,2-.28,2.92a6.48,6.48,0,0,1-.09,3c-.09.94.28,1.88.09,2.83a29.8,29.8,0,0,0-.19,4.14c0,.28.09.57.09.85a3.61,3.61,0,0,0,3.3,3.2c1.13.09,2.17,0,3.3,0a1.67,1.67,0,0,1,1.6,1.7c0,.75-.38,1.22-1,1.22-.38,0-.75.09-1.13.09-5,0-10.83-.09-13.75-.38l-1.23.28c-4.62,0-7.44.57-13.84,0a12.35,12.35,0,0,1-2.64,0,1.08,1.08,0,0,1-.66-1.79,2.17,2.17,0,0,1,1.88-1,7.33,7.33,0,0,0,2.07-.28,4.79,4.79,0,0,0,3.2-2.83c.57-1.23,1.23-2.64.75-4.05a32.19,32.19,0,0,0,.19-10,11.15,11.15,0,0,0,.19-2.54c.09-4.14.09-8.2.09-12.34v-.57c0-1.6-.09-1.7-1.6-1.41-.38.09-.75.28-1.13.09-1-.28-2.07.28-3.2,0a17.74,17.74,0,0,0-3.11.19h-6.22c-1,.09-2.17.09-3.2.09h-3.2c-.38,0-.85.09-1.23.09a.67.67,0,0,0-.66.75c-.09,1.22-.09,2.35-.09,3.48-.19,4.71.28,6.78,0,10.08-.38,4,.28,7.25,0,10.83,0,1.22,0,2.35.09,3.48a4.92,4.92,0,0,0,3.2,4.24,8.9,8.9,0,0,0,3.48.75,5.15,5.15,0,0,1,1.7.09,1.26,1.26,0,0,1,.94,1.32,1.45,1.45,0,0,1-.94,1.32,16,16,0,0,1-2.07.09c-5.74,0-11.3.47-17-.09-2.64-.28-3.48.28-6.22.19-1.79-.09-5.37.38-7.25.19a3.14,3.14,0,0,0-.94,0A1.5,1.5,0,0,1,174,184.75Z"/><path class="cls-1" d="M287,186.83l-1.13-.28a28,28,0,0,1-9.61-2.17,14.44,14.44,0,0,1-2.07-1.13c-2.36-1.41-4.8-2.83-6.59-5.09-2-2.17-3.86-4.43-5.74-6.69a13.57,13.57,0,0,1-1.79-2.92c-.75-1.6-1.41-3.39-2.07-5a3.93,3.93,0,0,1-.38-1.41,7,7,0,0,0-.75-2.64c-.09-.47-.28-.85-.38-1.32-.19-1.41-.38-2.83-.66-4.24-.28-1.23-.19-2.54-.38-3.77a7.24,7.24,0,0,1,.19-4.24,3.86,3.86,0,0,0,.09-1,36.51,36.51,0,0,1,2.45-11.87c1.6-4.14,3.3-8.29,6.12-11.77a30.36,30.36,0,0,1,6.59-6.4,32.39,32.39,0,0,1,11.11-4.8,30,30,0,0,1,10.45-.66,17.39,17.39,0,0,1,5.37,1.41,74.4,74.4,0,0,1,7.72,4,25.14,25.14,0,0,1,5.84,5.56,30.71,30.71,0,0,1,4.62,6.78c.57,1.22,1,2.45,1.6,3.67a18.33,18.33,0,0,0,.75,2.07,27,27,0,0,1,1.6,6,24.74,24.74,0,0,1,.57,7.82,24.18,24.18,0,0,0,.09,3.77c.09.94-.66,1.88-.19,3-.66,2.45-.85,4.9-1.6,7.34a62.13,62.13,0,0,1-4.8,10.93,45.61,45.61,0,0,1-4,5.84,26.25,26.25,0,0,1-14.5,8.48,24.21,24.21,0,0,1-3.77.57,3.78,3.78,0,0,0-1.41.28A5.94,5.94,0,0,1,287,186.83Zm5.56-5.18a12.3,12.3,0,0,0,2.26-2.17c2-2.73,3.2-6.22,4.43-9.32.19-.28.09-.47.09-.75a27,27,0,0,1,.85-4.8,30.89,30.89,0,0,0,.94-6.59c.09-3.2.38-6.12.38-9.23v-.56c0-2.83-.47-5.28-.38-8.1.09-2.64-.66-5.18-.57-7.91-.66-1.23-.47-2.64-.75-3.86-.75-3-1.88-5.93-2.83-8.85a10.73,10.73,0,0,0-3.58-5.09,5.83,5.83,0,0,0-2.35-1.32,4.68,4.68,0,0,0-3.2-.09c-.28.09-.57.09-.85.19a16.83,16.83,0,0,0-6,6l-2.26,4.62a10.87,10.87,0,0,0-1,2.64c-.57,3-1.6,5.93-2,8.95a73.78,73.78,0,0,0-1,9c-.19,2.26.28,4.52-.47,6.69.75,2.54.19,5.18.47,7.72.09.19.09.47.19.75.47.66.28,1.51.47,2.17a11.85,11.85,0,0,1,.38,2.54,20.79,20.79,0,0,0,.75,3.48,8.84,8.84,0,0,0,.57,1.41c.66,2.92,1.13,4.8,2.92,6.87a11,11,0,0,1,1.22,1.7,11.36,11.36,0,0,0,3.39,3.3,8.08,8.08,0,0,0,5.27,1.51A5.59,5.59,0,0,0,292.51,181.65Z"/><path class="cls-1" d="M346.09,186c-.28,0-.66-.57-.57-.94.09-.75.57-1.69,1.32-1.6a11.59,11.59,0,0,0,3.67-.75,4.92,4.92,0,0,0,3.48-3c.09-.38.38-.85.28-1.13-.47-1.22.19-2.26.09-3.48s.09-2.26-.38-3.39a1.34,1.34,0,0,1,.09-.85c.09-.47.09-1,.19-1.41.28-.85-.47-1.51-.09-2.26a8.26,8.26,0,0,0,.09-2.64,19.67,19.67,0,0,0,.09-2.35,9.84,9.84,0,0,1,0-2.35c.09-1.13-.47-2.26-.09-3.39a15,15,0,0,0,.09-3.58c0-1.13-.09-2.35-.09-3.48s.09-2.35.09-3.58c0-7.53.85-14.5,0-22.6v-5c-.09-2.26-1-3.3-3.11-4.05a10,10,0,0,0-2.92-.47h-1.69a1.71,1.71,0,0,1-1.51-.75c-.28-.66.19-1.13.47-1.6a.84.84,0,0,1,.75-.47,10.17,10.17,0,0,1,1.69,0c2.54,0,3.67-.19,6.12-.09a26.1,26.1,0,0,0,3.86,0c.85,0,1.6.19,2.45.19,4.33-.19,7.54,0,12.06-.19,2,0,4.05,0,6.12-.09a5.31,5.31,0,0,1,2.17.66c0,.38.19.85-.19,1.22a8.36,8.36,0,0,1-4,1.13,5.37,5.37,0,0,0-4.14,2.92,6.07,6.07,0,0,0-.56,2.83c0,5.74,0,11.58-.09,17.33a10.35,10.35,0,0,1-.19,2.36,13.33,13.33,0,0,0,0,5.46c.09.85.09,1.79.19,2.64.19,1.13-.47,2.17-.38,3.39.09,1.79,0,3.48,0,5.27,0,3.86.09,7.63,0,11.49-.09,1.7.56,3.39.47,5.18a36.47,36.47,0,0,0,0,5.56,4.63,4.63,0,0,0,3.77,4.52,7.43,7.43,0,0,0,3.2.57c.75-.19,1.23.47,1.88.57a2.88,2.88,0,0,1,0,1.79,15,15,0,0,1-6.88.38,13.88,13.88,0,0,0-2,.09c-.57,0-1.13-.09-1.79-.09a7.38,7.38,0,0,0-2-.19c-.85.38-1.51-.47-2.26-.09a4.82,4.82,0,0,1-2.54.38c-.85,0-1.6.09-2.35.09-4.61-.28-9.23,0-13.84,0A4.59,4.59,0,0,1,346.09,186Z"/><path class="cls-1" d="M410.22,187c-2.73.28-5.27-.47-7.82-1a11.76,11.76,0,0,1-2.92-.66,14,14,0,0,1-1.69-.94c-.75-.38-1.7-.19-2.45-.75a49.8,49.8,0,0,1-5.93-4,12.87,12.87,0,0,1-3.58-6.31,4.26,4.26,0,0,1-.28-1,10.79,10.79,0,0,1-.66-3.3,17.52,17.52,0,0,1,.75-3.86,11.38,11.38,0,0,1,1.6-3.2c1.79-2.35,4.14-4,7.25-3.86a11.84,11.84,0,0,1,4.05.38,14.18,14.18,0,0,1,4.43,2.64,9.32,9.32,0,0,1,2.07,3.3,5.87,5.87,0,0,1,.47,3.11,8.81,8.81,0,0,1-1.6,5.37c-.85,1.23-1.23,2.36-2.92,2.83l-.75.28a2,2,0,0,0-.94,3,15.86,15.86,0,0,0,3.77,3.2,10.79,10.79,0,0,0,4.62,1.6c.94.19,1.88.38,2.83.47s1.79-.09,2.64-.09c3.2,0,3.39.19,6-1.32a7.56,7.56,0,0,0,3.67-5.56,10.24,10.24,0,0,0-3.11-8.95,13.37,13.37,0,0,0-3.58-3.3,6.1,6.1,0,0,1-.85-.75c-3.11-3.11-6.69-5.65-9.7-8.85a2.22,2.22,0,0,0-.85-.75c-1.7-.85-2.83-2.26-4.24-3.48l-5.09-5a33.4,33.4,0,0,1-6.78-9.14c-.85-1.88-1.41-2.92-1.41-5a5.43,5.43,0,0,0-.47-2.45c0-.19-.09-.47,0-.57.66-1,.47-2.26.66-3.3a24.2,24.2,0,0,1,3-6.78,24.83,24.83,0,0,1,3.77-4,10.41,10.41,0,0,1,3.2-2.07,41.05,41.05,0,0,1,9-3.11,38.3,38.3,0,0,1,8.1-.38c1.79.19,3.86-.09,5.84.66,2.73,0,4.33,1.32,6.78,2.17,2.73,1.23,4.05,3.11,6.31,5.93a6,6,0,0,1,.75,1.79,15.33,15.33,0,0,1,1.22,4.52,10.35,10.35,0,0,1-.28,4.8,12.25,12.25,0,0,0-.75,1.6,9,9,0,0,1-6.31,5.65,8.12,8.12,0,0,1-2.64.38,11.64,11.64,0,0,1-5.28-1.41,8.7,8.7,0,0,1-3.86-8.85,7.23,7.23,0,0,1,5.18-5.84,4.58,4.58,0,0,1,2.26,0,1.22,1.22,0,0,0,1.41-1c.38-2.26-.47-3.48-2.45-4.71-1.7-1.51-4.05-1.6-5.93-2.54-2.07-.19-5.09-.85-7.06-.09-.38-.09-.75.28-1.13.28a9.46,9.46,0,0,0-6.5,4.24c-.56.75-.47,2.54-.94,3.3-.28.66.19,1.13.19,1.69a15.32,15.32,0,0,0,3.48,7.25c1.13,1.22,1.88,2.83,3.48,3.67.94,1.6,2.83,2.26,3.86,3.77a40.91,40.91,0,0,0,4.14,3.86c1.32,1.23,2.64,2.45,4,3.58.19.19.28.57.57.66,1.41.75,2.26,2,3.48,2.83s2.26,2.07,3.48,3.11,2.17,2.07,3.2,3.11a22.31,22.31,0,0,1,6.31,12.24,15.26,15.26,0,0,1-1,8.48,15,15,0,0,1-3,4.9,31,31,0,0,1-3.11,3,18.54,18.54,0,0,1-5,2.83,21.66,21.66,0,0,1-6.88,1.7,4,4,0,0,0-1.13.28,2.13,2.13,0,0,1-1.69,0,5,5,0,0,0-1.13-.28c-.85-.19-1.51.38-2.26.28A3.63,3.63,0,0,0,410.22,187Z"/><path class="cls-1" d="M106.88,364.87C91,366,84,364.87,72.77,365H71.63c-.82-.16-1.63-.16-2-1.14a2.74,2.74,0,0,1,.49-2.45c.82-1,1.63-1.79,2.94-1.63,2.77.16,4.89-1.14,7.18-2.45a7.26,7.26,0,0,0,3.59-5.71,56.09,56.09,0,0,1,.82-7.34,9,9,0,0,0-.16-3.59c-.49-1.31.49-2.28.16-3.43-.65-2.78.33-5.55.16-8.49s-.16-6-.16-9.14l-.16-10.45c.49-11.91-.33-21.87.33-33.78-.65-6.85,0-13.55,0-20.4,0-2,0-4.08-.16-6a7.11,7.11,0,0,0-3.1-6.2c-2.45-1.79-5.22-3.59-8.81-3.26a7.94,7.94,0,0,1-2-.16c-1,0-1.3-.65-1.3-1.79-.16-1.63.16-1.8,1.63-2.61,1.31-.65,2.61-.49,3.92-.65,2.94-.16,5.71.49,8.49.33a79.74,79.74,0,0,1,8.81-.16,6.08,6.08,0,0,1,2.94.33,3.2,3.2,0,0,0,2.45.16c.82-.16,1.8-.65,2.45-.33,1.31.65,2.61-.33,3.92.16a16.74,16.74,0,0,0,9-.16c.49-.16,1,0,1.47-.16,2.12-.33,4.24.82,6.53.16,2-.65,4.24-.16,6.53-.16,2.12,0,4.41-.16,6.53,0a78.42,78.42,0,0,1,12.4,1.8,33,33,0,0,1,7.83,3.26,46.56,46.56,0,0,1,9,5.71,26.71,26.71,0,0,1,8.16,13.22,20.63,20.63,0,0,1,.65,4.41,43,43,0,0,1-.82,8c-.16,1-.82,2-.82,2.94a2.19,2.19,0,0,1-.33,1.47c-1.63,2.28-2,5.39-4.08,7.51a53.72,53.72,0,0,1-5.55,5.06c-3.92,2.94-10.77,4.89-15.34,5.22-1.31.33-2.45.33-3.59,1.14a13.11,13.11,0,0,0,4.9,1.47,19.68,19.68,0,0,1,6.2,2c2,.49,6.69,1.63,8.16,3.43.33.65,1,.82,1.63,1.14a21.3,21.3,0,0,1,6.2,5.88,68,68,0,0,1,4.73,7.18c3.59,6.53,4.08,12.57,3.92,19.91-.16,4.24-2.28,9.79-4.41,13.38-3.43,5.71-8.32,9.3-14.2,11.91-2.12.82-4.41,1.47-6.53,2.45-3.59,1.31-7.51,1.14-11.26,2.12-3.43-.65-6.69.65-10,.16-1.14-.16-2.45.33-3.59-.16-.82-.16-1.63,0-2.45-.16a32.47,32.47,0,0,1-8,.33A70.55,70.55,0,0,0,106.88,364.87Zm26-6.2c7.34-2.77,11.26-8.32,13.06-15.67A47.49,47.49,0,0,0,147,330.11c0-2.28.33-5.06-.16-7.67a47.48,47.48,0,0,1-.82-6.53,4.75,4.75,0,0,0-.33-1.47c-1.8-3.75-2.61-7.67-5.39-11.43s-5.71-4.89-9.3-5.71c-2.12-.49-4.08-.16-6.37-.49l-5.55.16a25.53,25.53,0,0,1-3.59.16,2.43,2.43,0,0,0-2,2,2.07,2.07,0,0,0-.16,1c.16,2.12-.16,4.41.49,6.36-.82,2-.33,3.92-.33,6a6,6,0,0,0,.33,2.45c1,1.63-.82,3.26.16,4.9.33.33.16,1,.16,1.47-1.31,3.92-.49,8-1,12.08-.33,5.06,2,10,.33,15,.82,2.28.49,4.73,1,7a2.16,2.16,0,0,0,1,1.63c1.63,1.14,3.26,2.45,5.39,2.61A24.78,24.78,0,0,0,132.83,358.67Zm-12.4-67.24c4.41,0,5.71.16,10.12-.65a11.88,11.88,0,0,0,4.24-1.47c3.27-2,4.9-5.06,6.2-8.49a53.32,53.32,0,0,0,2.94-17.14c.33-2.61-.65-5.39-.82-8.16a19.1,19.1,0,0,0-6-11.91,10.46,10.46,0,0,0-6.69-3.27,60.43,60.43,0,0,0-7.67.16c-3.75.16-7.67,1.8-8.65,6a26.12,26.12,0,0,0-.49,8c.49,2.28-.33,4.24.16,6.37.33,2.28,0,4.41.16,6.69,0,.65.33,1.31.16,2-.82,1.63-.49,3.26-.65,4.9,0,1.79,0,3.43.16,5.22,0,1.63-.33,3.43.16,5.06.33,1.63-.16,3.26.16,4.9.16,1.31.65,1.79,1.8,1.79A46.25,46.25,0,0,1,120.43,291.43Z"/><path class="cls-1" d="M276.46,364.87c-3.1-1.47-6.37-2.45-8.49-5.22a17.48,17.48,0,0,1-1.63-2A73.87,73.87,0,0,1,259,339.41a140,140,0,0,1-3.43-13.71,26.16,26.16,0,0,0-1.14-3.26,40.37,40.37,0,0,1-1.8-5.88,34,34,0,0,0-4.73-13.06c-2-2.94-3.92-3.26-7.34-2.94h-2c-.82.16-1.3.65-1.14,1.47.16,2.28-.65,4.9-.16,7.18a53,53,0,0,1,0,7.18c.16,9.47.33,19.09.16,28.56a21.1,21.1,0,0,0,3.1,10.45,4.58,4.58,0,0,0,2,1.63c3.1,1.31,6,2.77,9.3,2.61a4.76,4.76,0,0,1,1.47.33c.82.16,1.47,1.47,1.47,2.45-.16,1-1,2.12-2,2.12a17.7,17.7,0,0,1-2.94.16c-2.28,0-4.57,0-6.69-.16-2,.33-3.92-.49-5.87-.16-2,.16-4.08,0-6,.33-1.8.16-3.59-.49-5.55-.33a4.43,4.43,0,0,0-1.47,0c-3.26,1.3-6.69.65-10.12.82-4.57.16-9.47-.82-14,.65-2.45-1.14-5.06-.33-7.51-.49a.6.6,0,0,0-.49-.16c-.65-.33-1.47-1.47-1.3-2.12a1.65,1.65,0,0,1,1-1.47c1.63-.49,3.26-1.31,4.9-1.31,3.92.16,6.2-2.12,8.32-5.06a9.76,9.76,0,0,0,1.8-6c-.16-4.41,0-8.81,0-13.22a20.76,20.76,0,0,0-.33-4.57c-.33-1.31.49-2.94.33-4.41-.82-4.57.16-9,0-13.38l-.33-14.85c0-.49.49-1,.33-1.47-1.31-3.26,0-6.69-.16-10.12L206,262.7a18.17,18.17,0,0,1,.65-6.53c.49-.65-.82-2.12,0-3.59-1-2.12-.49-4.41-.65-6.53-.33-4.08-2.78-6.37-6.53-6.53-1.79,0-3.59-.33-5.39-.33h-.49c-.82,0-2.77-1.63-2.61-2.12a3.46,3.46,0,0,1,2-2.28,4.75,4.75,0,0,1,1.47-.33H197c13.87-1,22.69,0,34.11,0h14.69c4.9-.16,10-.33,14.85,0,8.49.49,16.65,2.45,23.83,7.18,4.9,3.1,8,7.67,10,13.06a20,20,0,0,1,1.31,5.39c.16,2.28-.49,4.73.65,7-1.31,3.43.16,7.51-2.45,10.61a31.12,31.12,0,0,1-11.26,13.38c-4.08,2.77-13.87,5.39-19.58,6.2,12.57,1.63,19.1,12.41,22.2,21.05a45,45,0,0,1,2.61,9.14c2.12,4.08,2.45,8.81,4.41,12.89.16,2.94,1.8,5.39,2.94,8a5.61,5.61,0,0,0,.82,1.31,2.6,2.6,0,0,0,4.41.16,9.4,9.4,0,0,0,2.28-6.53c.82-2.12.65-3.92,1-5.88.16-.65,1-1,1.47-1.47.16-.16.65-.16,1-.16,1.31.65,1.31,1,1.63,2.45v1c-.49,6.37-.33,13.38-4.24,18.61a20,20,0,0,1-11.42,7.83,25.89,25.89,0,0,1-10.45,1C279.72,366.5,278.09,365.52,276.46,364.87ZM246.59,294a11.76,11.76,0,0,0,3.43-.82,21.59,21.59,0,0,0,9.14-7c2.45-2.94,3.43-6.37,4.89-9.79.16-4.89,1.8-9.63,1.14-14v-4.24a29.74,29.74,0,0,0-2-9.14c-1.31-3.75-3.92-5.71-7.18-7.34-1-.49-2.28-.65-3.26-1.14-3.59-1.63-7.34-1.14-10.93-.33-3.27.65-4.41,5.06-4.41,8.49-.16,2.94,0,4.24,0,7,0,4.08,0,7.51-.16,11.59,0,4.08-.65,8.16-.16,12.24.16,1.31,0,2.61.16,3.92.16,1.47-.49,2.78-.33,4.24a31.48,31.48,0,0,1,.16,5.55c0,.65-.49,1,.33,1.14a2.82,2.82,0,0,0,1.63.16A54.31,54.31,0,0,0,246.59,294Z"/><path class="cls-1" d="M365.74,366a26,26,0,0,1-4.9-1,28.79,28.79,0,0,1-5.39-1.14,105,105,0,0,1-9.63-4.73c-7-4.08-11.1-10.45-14-18-2.12-5.55-3.59-11.26-3.1-17.3,0-2.28-.65-4.57-.16-6.85.33-1.47-.49-2.61-.65-4.08a32.64,32.64,0,0,1,.65-3.92c.33-1.63-.65-3.1-.16-4.9a21.39,21.39,0,0,0,.16-4.57c.16-13.22.16-23.83.16-37v-5.71a6.25,6.25,0,0,0-.16-2.45c-.65-2.61-.49-5.22-1.31-7.83-1.47-5.55-3.92-6.53-9-7.34a8.71,8.71,0,0,1-2.94-.16,3,3,0,0,1-1.63-1.14c-.16-.33-.33-1.14,0-1.47a4.61,4.61,0,0,1,3.75-2.28,40,40,0,0,0,4.41.33c1.47.16,2.94-.49,4.41.33a1,1,0,0,0,1,0c2.94-.82,5.71-.16,8.49-.33,2.94-.16,5.71-.33,8.65-.33s5.71.33,8.65.33c1.14,0,2.28.49,3.43,0,1.3-.65,2.77-.16,4.08-.33H367a6,6,0,0,1,3.43.82,2,2,0,0,1,1,1.63c0,.82-.49,1.14-1.14,1.63-1.14.82-2.61.82-3.92,1a7.34,7.34,0,0,0-6.36,4.41,6.1,6.1,0,0,0-.82,2.94c.16,1.8-.65,3.59-.16,5.39s-.49,3.43,0,5.39a9.24,9.24,0,0,1-.33,5.55,1,1,0,0,0-.16,1c1,2.45-.33,18.93-.16,20.08a35.44,35.44,0,0,1,0,8.32,67.3,67.3,0,0,0-.16,8.16c.16,2.77.16,5.71.16,8.65,0,1-.33,2.12.16,2.94.82,1.79.33,3.59.33,5.39a52.39,52.39,0,0,0,.16,7.18,17.7,17.7,0,0,1,.16,5.06c-.65,5.22.82,10.12,2.45,14.85,1.8,4.73,4.41,8.49,9.3,10.61,2.28,1,4.24,2.28,6.53,2.94,2.12.65,4.24.65,6.53,1.14a14.25,14.25,0,0,0,8.65-1.14,42.34,42.34,0,0,0,8.16-4.08,19.72,19.72,0,0,0,6.85-7.34c.82-1.8,2.28-3.26,2.78-5.22a49.14,49.14,0,0,0,2-11.91V314.6c-.49-6.85.16-13.87.16-20.89,0,.16-.33-11.75-.16-11.75a15.8,15.8,0,0,1,0-3.92,8.61,8.61,0,0,0,0-4.08l-.33-11.42c0-.49.33-.82.16-1.47-1-3.59-.16-7.34-1.63-10.94a33.15,33.15,0,0,0-2.28-5.55,8.72,8.72,0,0,0-4.9-4.08,37.83,37.83,0,0,0-10.28-1.79c-1.14,0-1.79-.49-2-1.31a2.44,2.44,0,0,1,1.79-2.78,12.33,12.33,0,0,1,2.45-.16h14.85a25.89,25.89,0,0,0,6-.49c2.12,0,4.41.16,6.53.16h9.63a9.28,9.28,0,0,1,2.12.16,2.35,2.35,0,0,1,1.47,2,2.08,2.08,0,0,1-.82,1.79c-.82.49-1.63,1.14-2.78.82-2.78-.82-5.22.16-7.67,1.31-2.12,1-3.75,2.12-4.57,4.08-1.31,3.1-2.61,6.2-2.61,9.79.16,8.65.16,16.16.16,24.81v5.06c0,.82.16,1.79.16,2.61-.33,4.41-.16,18.28-.16,27.42,0,1.47-.33,3.1.33,4.57-.82,1.31-.16,2.45,0,3.75.16,1.47-.16,2.94,0,4.57.33,1.31-.16,2.94-.33,4.41-.16,2-.33,3.92-.33,5.88-1,3.26-1.14,6-2.78,8.65l-2.12,3.43a30.56,30.56,0,0,1-13.38,12.73c-4.24,2.12-4.08,2-13.38,4.24-4.89,1.14-9.79.82-14.69.65C369.33,366.83,367.7,366,365.74,366Z"/><path class="cls-1" d="M492.72,366.18c-6-1.14-8.16-1.47-12.08-3.43-3.43-2-7.18-2.94-10.28-5.39a25.7,25.7,0,0,1-2.45-2,68.88,68.88,0,0,1-13.06-16.81,5.43,5.43,0,0,0-1-1.63c-1.79-2.77-1.63-4.24-2.61-7.34-1-2.78-2.61-5.71-3.1-8.65-.49-2.78-1.31-5.71-1.79-8.65a60.33,60.33,0,0,1-.33-18c-.82-2.78.49-5.39.65-8.16a51.71,51.71,0,0,1,1.63-8.16c.49-2.61,1.47-5.22,2.12-7.83.65-2,2.28-3.26,2.45-5.39.16-1.79,1.79-3.43,2.45-5.39a21.74,21.74,0,0,1,2.61-4.57,52.34,52.34,0,0,1,3.43-4.9,26,26,0,0,1,4.24-4.24,65.23,65.23,0,0,1,16.16-10,5.24,5.24,0,0,1,1.47-.49c2.77-.33,5.39-1.63,8.16-2.28a33.45,33.45,0,0,1,8-1h4.08c7-.33,11.91,1.47,16.81,3.1a28.57,28.57,0,0,1,11.42,7,50.33,50.33,0,0,1,5.88,7.34c1,1.63,1.47,3.26,2.94,5.06a1.17,1.17,0,0,1,.49,1c1,3.59,2.45,7.18,2.45,10.94,0,2.78-.16,5.55-.33,8.32s-1.31,5.39-2.28,8a31.59,31.59,0,0,1-2.94,5.71,10.36,10.36,0,0,1-3.92,3.59c-1.47.82-3.1,1.47-4.57,2.28a4.85,4.85,0,0,1-2.94.65,29.19,29.19,0,0,1-10-1.14,14.14,14.14,0,0,1-4.9-3.59,10.83,10.83,0,0,1-3.26-4.57c-2.45-3.43-1.63-7-1.63-10.61,1.47-3.43,3.1-6.85,6.36-9.3a14,14,0,0,1,9.79-3.27h2.45a2.54,2.54,0,0,0,2.61-2.45,20,20,0,0,0-2.12-11.91,15.45,15.45,0,0,0-10.45-9.63,39.93,39.93,0,0,0-4.73-1.47,42.83,42.83,0,0,0-8,.65,24.25,24.25,0,0,0-13.22,10.45,47,47,0,0,0-6.37,15.18,5.17,5.17,0,0,0-.49,1.47c0,4.41-2.12,10.28-2,14.85a78.34,78.34,0,0,1-1.31,11.91c0,4.41.33,10.28.33,14.53,0,6.69,1.47,13.22,2.61,19.91a25,25,0,0,0,1.14,4.73c2.28,6,5.22,11.75,10,16.16,4.24,4.08,10.45,7.18,16.65,7.18a18.9,18.9,0,0,0,8-.82,41.48,41.48,0,0,0,5.39-2.77,32.31,32.31,0,0,0,8-9,51.7,51.7,0,0,0,6.2-16c.65-2.61.65-5.55,1.31-8.16a2.46,2.46,0,0,1,3.75-1.79c.65.33,1.14.65,1.14,1.47a15.8,15.8,0,0,1,0,3.92c-.82,6.85-2.12,14.52-5.22,20.89a19.33,19.33,0,0,0-.82,1.79,34.09,34.09,0,0,1-17.3,19.42A49,49,0,0,1,510,366.5c-3.1.65-8.32,1-11.26.33C496.64,366.5,494.68,366.34,492.72,366.18Z"/><path class="cls-1" d="M562.42,365.2a2.94,2.94,0,0,1-1.63-1,1.36,1.36,0,0,1-.33-1.31c.49-1.31,1.31-2.61,2.94-2.61a19.91,19.91,0,0,0,5.39-.33c3.92-.65,5.88-2.94,6.86-6.53,0-.49.49-1,.33-1.31,0-3.92.82-7.67.49-11.59q-.25-5.63,0-11.26c.16-3.92.16-7.83,0-11.59-.33-10.28.33-20.57.33-30.85a13.39,13.39,0,0,0-.49-5.06c.65-3.92.33-8,.33-11.91-.16-6-.16-11.91-.16-18a17.55,17.55,0,0,0-.82-6.53,8.47,8.47,0,0,0-7-5.71c-2-.16-3.75-.16-5.71-.16a3.92,3.92,0,0,1-3.27-2,1.49,1.49,0,0,1,.16-2,9.19,9.19,0,0,1,3.75-1.14c3.59-.49,6.85-.16,10.28-.16,3.92,0,7,.16,10.12.16,1,0,2-.33,2.94-.33,4.9,1.31,10.61.49,21.05.33,2.12,0,4.41,0,6.53-.16,2.12-.33,4.24,0,6.37-.33,4.24.16,8.49.33,12.73.16H646.8a44.26,44.26,0,0,1,4.57-.16c2.45.16,4.08-.16,5.88.33s2.61,2.12,2.94,4.24c.65,4.08.49,7.67,1.14,11.59.82,4.24.49,8.49,1,12.73a68.39,68.39,0,0,1,.82,10,13.94,13.94,0,0,1,0,2.61c-.16.82-.82,1-1.47,1.14a3.94,3.94,0,0,1-4.24-2.12,28.41,28.41,0,0,1-1.14-3.43c-1.79-7-5.06-13.55-8.49-19.91a20,20,0,0,0-11.42-9.47,59.79,59.79,0,0,0-11.75-2.28c-.82,0-1.63.33-2.45-.16-1.79-.16-3.75-.82-5.55-.33a25.59,25.59,0,0,1-3.43.65c-2.12,0-3.75,1.31-5.55,2.28a4.62,4.62,0,0,0-1.47,2.61c-.49,1.79-.16,3.75-1,5.39a1.39,1.39,0,0,0,0,1.14c1.14,2.12.65,4.57.33,6.85a44.24,44.24,0,0,0,0,9.3,2.7,2.7,0,0,1,0,2,3.11,3.11,0,0,0,0,2.94,5.12,5.12,0,0,1,.33,3.1c-1,2.29-.33,4.57,0,6.86.33,3.43.16,6.85.16,10.28V294a1.16,1.16,0,0,0,1.14,1.31c3.43,0,7.34.33,10.45-.65,6.69-2,10.45-6.53,12.73-12.73a14.06,14.06,0,0,0,1.31-5.88,9.88,9.88,0,0,1,.82-2.94c.82-2,2-2.45,4.08-1.79.33,0,.82.49,1,.82a4.81,4.81,0,0,1,.33,2.12v7.51c0,2.12-.49,4.08.49,6a10.77,10.77,0,0,0-.49,5.55c0,2.12-.16,4.08-.16,6.2,0,1.8.16,3.59.16,5.55s-.16,4.08-.16,6v5.71c0,2,0,4.08.16,6a9.28,9.28,0,0,1-.16,2.12c-.16.33-.49,1-1,1a9,9,0,0,1-2.94,0,1.53,1.53,0,0,1-1.14-.82,5.49,5.49,0,0,1-.82-2.28,52,52,0,0,0-3.26-12.24,23.48,23.48,0,0,0-3.75-6.53,8.94,8.94,0,0,0-6.53-3.43c-2.61,0-5.22-.49-7.51.33-1-.65-1.63.16-2.61,0-1.47-.33-2.12.33-2.12,1.8,0,5.88.16,11.91.16,17.62v7.18c0,1.47,1.47,2.94.16,4.41,0,1.31.82,2.45.65,3.92s0,3.1-.16,4.57c0,1.8.33,3.75-.49,5.55-.33,1,.33,2.12.16,3.43-.16.49.49,1.14.16,1.8-1.14,2.12,0,3.75.82,5.39,1,1.8,2.78,2.45,4.57,3.1a12.33,12.33,0,0,0,2.45.16c5.22,0,9.14.82,15.18,0a17.19,17.19,0,0,0,3.92-1c6.2-2.28,11.1-6.2,15.5-10.93.33-.33.82-.65,1-1.14,3.59-6.2,6.53-12.24,8-19.42a57.65,57.65,0,0,0,1.3-7.34,14.1,14.1,0,0,1,1-3.75c.33-1.14,2.77-1.47,4.57-.49a1.75,1.75,0,0,1,1.14,1.47c-.16,2.12.33,4.08-.33,6a2.32,2.32,0,0,0-.33,1c.16,4.24-1.14,8.32-1.14,12.57.16,3.75.33,7.51-1,11.1a21.35,21.35,0,0,0,0,4.57,46,46,0,0,1-1.14,10.61c-.33,1.3-.49,1.63-2,1.63a35.46,35.46,0,0,1-4.08.16c-8.32,0-16.65-.49-25,.16-4.57.33-8.16,0-12.24,0l-10.12.16c-6.53-.16-15.34.33-19.42-.49-3.75.16-7.51.16-11.26.16-.82,0-1.63.33-2.45.33C571.23,365,566.83,365.2,562.42,365.2Z"/><path class="cls-1" d="M724.34,364a2,2,0,0,1-1-2.94,5.23,5.23,0,0,1,3.43-2,13.69,13.69,0,0,0,9-4.24,9.15,9.15,0,0,0,2.45-5.39c.33-2.61.82-5.22,1-7.84,0-4.24,0-8.49-.16-12.73a12.6,12.6,0,0,0-.33-2.45c-.16-.49-.49-1.14-.33-1.47,1.14-3.75-1.14-7.67.49-11.42a60.07,60.07,0,0,1,0-7.67c0-2.28.65-4.57.33-7-.33-2.12,0-4.41-.16-6.53,0-2.45-.16-4.73,0-7.18.33-2.12-.49-4.24-.16-6.36.49-2,.16-4.08.16-6.2.16-2.12.16-4.41.16-6.53s-.16-4.08,0-6.2c.33-4.24-.65-8.32-1.14-12.57a18.39,18.39,0,0,0-1.31-4.24c-.82-2.94-2.94-4.08-5.71-4.24-1.47-.16-2.94-.16-4.57-.33-1.47-.16-2.28-3.1-1.31-4.24a2.16,2.16,0,0,1,1.31-.49c2.28-.16,13.38-.65,15.5-.65,13.22,0,17.3.49,30.36.49a18.54,18.54,0,0,0,6-.65,13.25,13.25,0,0,1,3.59-.16,3.12,3.12,0,0,1,1.31.49c.82.65,1.79,1.31,1.47,2.61a2.09,2.09,0,0,1-2,1.79c-1.79.16-3.26,1.14-5.06,1-3.27-.49-5.39,1.47-6.86,4.08a12.07,12.07,0,0,0-2.12,6.69c.16,2.77,0,5.39,0,8.16a8.14,8.14,0,0,1-.49,3.92,4.57,4.57,0,0,0,0,3.59c.65,1.8.33,3.59.33,5.55-1.14,1.14,0,2.61-.33,3.75a12.2,12.2,0,0,0-.33,3.43v4.08c-.16,1.63.65,3.26,0,4.9,1,1.63-.16,3.26-.16,4.89.33,2,0,3.75.16,5.55,0,.49.33,1,.33,1.31.49-.16,1-.49,1.47-.65a33.72,33.72,0,0,0,3.43-3.43c9-10,11.91-14.36,21.22-24,2-2.12,5.22-6.2,7.34-8.16,2-2,3.43-4.24,5.22-6.37a49.46,49.46,0,0,0,4.73-7.18,10.75,10.75,0,0,0,.82-5.55,5.39,5.39,0,0,0-4.24-4.41,19.71,19.71,0,0,0-3.1-.16,3.17,3.17,0,0,1-2.61-1.31c-.49-.49-1.14-.82-.82-1.63.49-1.31,1-2,2.12-2h25a71.34,71.34,0,0,0,10.12-.49c1.31-.16,2.94.33,4.41.33,1.63.16,2.12,1.14,1.79,2.94a2.9,2.9,0,0,1-.82,1.14,19.69,19.69,0,0,1-2.94.82c-4.73.49-7.34,2.94-11.26,4.9a114,114,0,0,0-8.65,7.51,87.25,87.25,0,0,1-7.83,7.67A210.31,210.31,0,0,0,798.11,275c-1.63,2-2.28,1.63-.82,3.75.82,3.26,2.61,6,4.41,8.81,2.77,4.57,5.22,9.3,7.83,14A149.17,149.17,0,0,1,821.94,326c3.92,7,8.16,14.2,12.57,20.89l1.47,2.61c2.78,5.39,7.34,8.32,12.89,9.63.49.16,1.14.16,1.47.49.65.49,1.47,1.14,1.47,2,.16.82-.65,1.47-1.47,1.63a9.88,9.88,0,0,1-2.94.82c-3.26,0-6.69.16-10.12-.16-1.47-.33-3.1.33-4.41,0a17.25,17.25,0,0,0-5.06-.49c-1.63,0-3.26,0-5.06.16-1.8.33-3.59-.16-5.39-.33h-5.06c-2,0-3.75.16-5.71.16-1.63-.16-3.43-.16-5.06-.16a6.31,6.31,0,0,0-3.43.49c-1,.65-2.12.33-3.1.33-1.31-.16-2.78-1.47-2.61-2.12a3.81,3.81,0,0,1,2.28-2.45c1.47-.65,2.94-.49,4.41-1.14,1.63-.82,2.45-1.79,2.45-3.59a12.77,12.77,0,0,0-1.31-6.36c-2.94-5.39-5.39-11.26-8.81-16.48-1.63-2.61-2.61-5.39-4.08-8.16l-9.47-17.79a26.6,26.6,0,0,0-2.28-3.59,1.07,1.07,0,0,0-1.31-.33c-2.12,2.12-4.08,4.08-6,6.2a3.88,3.88,0,0,0-.49,2c0,10,0,20.07.16,30,0,1.31.49,2.45,0,3.92a8.18,8.18,0,0,0,.33,3.43,17.51,17.51,0,0,1,.49,4.08c.16,3.43,1.63,5.22,5.06,6.69a8.35,8.35,0,0,0,4.41.65c.65,0,1.47.16,2.12.16a2.86,2.86,0,0,1,1.8,2.78c-.16,1-1,2.12-2,2.12-2,.16-4.08.16-6,.16H746.54a26.51,26.51,0,0,1-5.06-.49c-.82-.16-1.63.33-2.45.33-4.41,0-8.81.16-13.22.16C725.32,364.15,724.83,364,724.34,364Z"/><path class="cls-1" d="M920.36,364.15a1.31,1.31,0,0,1-1-1.63,3,3,0,0,1,3.43-2.61,6.15,6.15,0,0,0,3.43-.16,23.8,23.8,0,0,1,3.59-.49c2.61.16,3.92-1.47,5.22-3.26a2.64,2.64,0,0,0,.49-1.47c.16-2,.65-4.08-.49-6a58.82,58.82,0,0,0-2.45-10.28l-2-5.06c-.49-1.47-.65-2.78-1.63-3.75-1.14-1-2.94-.33-4.41-.33-2.45,0-4.73.16-7.18,0-1.47-.16-3.1-.65-4.57,0-1.31.65-2.45-.65-3.92-.33a32.5,32.5,0,0,1-8,.49c-2.45-.16-4.9.16-7.51,0a2.7,2.7,0,0,0-2.94,2.12c-1.31,3.75-2.77,7.67-3.75,11.26-.65,2.28-1.3,4.57-2.12,6.85-1.63,4.08-.16,7.18,3.75,8.81a14.46,14.46,0,0,0,6.36,1c2.12.16,4.08,0,6.2.16a2.4,2.4,0,0,1,2.12,2,2.29,2.29,0,0,1-1.63,2.78,41.21,41.21,0,0,1-4.57.16c-3.27,0-7.51.33-9.63,0-4.24,0-8.49,0-12.73.16-1,0-2.12-.65-2.94-.33a9.28,9.28,0,0,1-5.55.16c-1.47-.49-2.94.16-4.57,0-1.14-.16-1.63-1-2.12-2a1.59,1.59,0,0,1,1.47-2.12c1.63-.16,3.26-.16,5.06-.16a7.42,7.42,0,0,0,4.57-1.63,23.25,23.25,0,0,0,9.14-11.75c1.79-5.39,3.43-10.61,5.22-15.83,2.28-5.88,4.08-11.75,6.53-17.46.49-1.14.82-2.28,1.14-3.26,1.47-5.22,3.75-10.12,4.73-15.51.16-1.14,1.14-2.12,1.47-3.26,1.14-4.9,3.1-9.47,4.57-14.36,2.78-8.81,5.39-17.63,8.16-26.44.82-3.1,2.28-6,2.78-9.14a40.73,40.73,0,0,1,3.1-8.49c.65-1.47,1.47-2.12,2.61-2,2,.16,4.08-.16,5.88-.16,2,0,1.79,1,2.61,2.61a4.91,4.91,0,0,1,.65,1.31c2,5.22,3.75,10.45,5.55,15.67.65,2,1.47,3.92,2.12,5.71l2.94,8.65c1.14,3.26,2.45,6.53,3.75,10a21.14,21.14,0,0,1,1.63,5.71c.49,2.28,1.8,4.41,2.45,6.53l8.32,25.95a18.22,18.22,0,0,0,2,5.71,3.89,3.89,0,0,1,.33,1.47c.65,5.06,2.61,9.79,4.57,14.36,1.79,3.92,2.94,8.32,4.73,12.24a42.42,42.42,0,0,0,2.61,5.55c2.12,3.59,5.39,6.53,9.79,6.69a6.25,6.25,0,0,1,4.08,1.79c1,.65.65,2.45-.49,2.94a2.32,2.32,0,0,1-1,.33c-2.61-.16-5.22.33-8,.16-5.88-.33-11.91-.16-17.79-.16-7.51,1.47-15.18,0-22.85.33-2,.16-3.92,0-6,.65C925.25,364.15,922.81,365.13,920.36,364.15Zm-4.73-40.64c2.78-.16,5.55.33,8.16-.16.82-.16,2,0,2.45-.49,1-.82-.49-2.45-.65-3.27-1.47-6.2-3.92-12.08-5.71-18.28a180.85,180.85,0,0,0-6.37-18c-1.14-2.45-1.14-5.22-2.77-7.51A2.48,2.48,0,0,0,909.1,278c-1.14,4.73-3.43,9.14-4.24,14-2.12,4.08-3.1,8.49-4.57,12.73a78.76,78.76,0,0,1-3.59,10.45c-1,2.12-2,4.24-2.78,6.53-.49,1.14.16,1.79,1.47,1.79a18.4,18.4,0,0,0,5.06.16C906.65,323.52,907.3,324,915.62,323.52Z"/><path class="cls-1" d="M1029.39,365.13a26,26,0,0,1-4.9-1,28.79,28.79,0,0,1-5.39-1.14,105,105,0,0,1-9.63-4.73c-7-4.08-11.1-10.45-14-18-2.12-5.55-3.59-11.26-3.1-17.3,0-2.28-.65-4.57-.16-6.85.33-1.47-.49-2.61-.65-4.08a32.64,32.64,0,0,1,.65-3.92c.33-1.63-.65-3.1-.16-4.9a21.39,21.39,0,0,0,.16-4.57c.16-13.22.16-23.83.16-37v-5.71a6.25,6.25,0,0,0-.16-2.45c-.65-2.61-.49-5.22-1.31-7.83-1.47-5.55-3.92-6.53-9-7.34a8.71,8.71,0,0,1-2.94-.16,3,3,0,0,1-1.63-1.14c-.16-.33-.33-1.14,0-1.47a4.61,4.61,0,0,1,3.75-2.28,40,40,0,0,0,4.41.33c1.47.16,2.94-.49,4.41.33a1,1,0,0,0,1,0c2.94-.82,5.71-.16,8.49-.33,2.94-.16,5.71-.33,8.65-.33s5.71.33,8.65.33c1.14,0,2.28.49,3.43,0,1.3-.65,2.77-.16,4.08-.33h6.53a6,6,0,0,1,3.43.82,2,2,0,0,1,1,1.63c0,.82-.49,1.14-1.14,1.63-1.14.82-2.61.82-3.92,1a7.34,7.34,0,0,0-6.36,4.41,6.1,6.1,0,0,0-.82,2.94c.16,1.8-.65,3.59-.16,5.39s-.49,3.43,0,5.39a9.24,9.24,0,0,1-.33,5.55,1,1,0,0,0-.16,1c1,2.45-.33,18.93-.16,20.08a35.44,35.44,0,0,1,0,8.32,67.3,67.3,0,0,0-.16,8.16c.16,2.77.16,5.71.16,8.65,0,1-.33,2.12.16,2.94.82,1.79.33,3.59.33,5.39a52.39,52.39,0,0,0,.16,7.18,17.7,17.7,0,0,1,.16,5.06c-.65,5.22.82,10.12,2.45,14.85,1.8,4.73,4.41,8.49,9.3,10.61,2.28,1,4.24,2.28,6.53,2.94,2.12.65,4.24.65,6.53,1.14a14.25,14.25,0,0,0,8.65-1.14,42.34,42.34,0,0,0,8.16-4.08,19.72,19.72,0,0,0,6.85-7.34c.82-1.8,2.28-3.26,2.78-5.22a49.14,49.14,0,0,0,2-11.91V313.72c-.49-6.85.16-13.87.16-20.89,0,.16-.33-11.75-.16-11.75a15.8,15.8,0,0,1,0-3.92,8.61,8.61,0,0,0,0-4.08l-.33-11.42c0-.49.33-.82.16-1.47-1-3.59-.16-7.34-1.63-10.94a33.15,33.15,0,0,0-2.28-5.55,8.72,8.72,0,0,0-4.9-4.08,37.83,37.83,0,0,0-10.28-1.79c-1.14,0-1.79-.49-2-1.31a2.44,2.44,0,0,1,1.79-2.78,12.48,12.48,0,0,1,2.45-.16h14.85a25.79,25.79,0,0,0,6-.49c2.12,0,4.41.16,6.53.16h9.63a9.28,9.28,0,0,1,2.12.16,2.35,2.35,0,0,1,1.47,2,2.08,2.08,0,0,1-.82,1.79c-.82.49-1.63,1.14-2.78.82-2.78-.82-5.22.16-7.67,1.31-2.12,1-3.75,2.12-4.57,4.08-1.31,3.1-2.61,6.2-2.61,9.79.16,8.65.16,16.16.16,24.81V283c0,.82.16,1.79.16,2.61-.33,4.41-.16,18.28-.16,27.42,0,1.47-.33,3.1.33,4.57-.82,1.31-.16,2.45,0,3.75.16,1.47-.16,2.94,0,4.57.33,1.31-.16,2.94-.33,4.41-.16,2-.33,3.92-.33,5.88-1,3.26-1.14,6-2.78,8.65l-2.12,3.43a30.56,30.56,0,0,1-13.38,12.73c-4.24,2.12-4.08,2-13.38,4.24-4.89,1.14-9.79.82-14.69.65C1033,365.95,1031.34,365.13,1029.39,365.13Z"/><path class="cls-1" d="M1111.81,363.18c-.65-.82-1.14-2.28-.82-2.78.65-.82,1.47-.65,2.45-.65a25.15,25.15,0,0,0,6.85-1.14,12.23,12.23,0,0,0,3.92-2.45,7.13,7.13,0,0,0,2.12-3.92,37.72,37.72,0,0,0,.82-7.51c.33-22.85-.65-51.74.16-72.3,0-7.34-.16-14.85-.33-22.36a12.2,12.2,0,0,0-.33-3.43c-.65-3.43-3.1-5.55-5.71-7.51a5.49,5.49,0,0,0-2.78-.82h-4.08c-.49-.16-1.14,0-1.63-.16a2.53,2.53,0,1,1,0-5.06h7.67c6.2,0,12.57.16,18.77.16,2.28,0,4.41,0,6.69-.16,2.12,0,4.41.33,6.53-.49,1.14.65,3.1,0,4.24,0h5.55c13.22,0,23.34,1,35.58,0,2.61-.33,8.32.16,10.94.16,2.28,0,3.1.65,3.59,3.26l1,6.37c1,7.18.82,14.52,1,21.71,1.14,4.41.82,8.81,1,13.22,0,1-.49,1.63-1.47,1.63a12.33,12.33,0,0,1-2.45.16,2.53,2.53,0,0,1-2-1.63,26.72,26.72,0,0,1-1.14-4.9,18.69,18.69,0,0,0-2-6.69c-.82-2-1.14-4.24-2.45-6-.49-.49-.49-1.31-.82-1.8a10,10,0,0,0-.82-2c-2.45-3.26-4.41-6.69-7.67-9.3-1.8-1.47-3.59-2.94-5.55-4.24a19.82,19.82,0,0,0-7.84-3.43c-2.12-.33-4.24-1.14-6.36-1.63a17.71,17.71,0,0,0-2.94-.16,67.94,67.94,0,0,0-8.16,0c-3.75.16-5.71,1.8-6.53,5.22-.33,1.63.33,3.43-.33,4.9a1.41,1.41,0,0,0,0,1.14c.65,3.1,0,6.69.16,10.12.16,6.2.16,12.57.16,18.77a184.44,184.44,0,0,0,.16,18.77,1.17,1.17,0,0,0,1.31,1.14c1.47,0,3.75,0,5.39.16a10.58,10.58,0,0,0,6.2-1.79,21.83,21.83,0,0,0,9.3-10.94,43.86,43.86,0,0,0,3.1-10,15.68,15.68,0,0,1,1-2.94c.33-1,1.14-1,2.12-1,.82,0,1.63,0,2,1a6.13,6.13,0,0,1,.82,2.94v20.89a18.57,18.57,0,0,1-.49,2.94c0,1-.49,2.12-.16,3.1.82,2,.16,3.75,0,5.71q-.25,5.63,0,11.26c0,2.61-.49,5.39.65,8v.49c-.16.65-2.28,1.63-3.59,1.63a2.2,2.2,0,0,1-2-1.31,4.75,4.75,0,0,1-.33-1.47,55.15,55.15,0,0,0-6-18.12c-1.14-2.12-2.61-3.75-4.73-4.24-2.45-.49-4.73-1.63-7.51-1.31-1.47.16-3.75,0-5.22,0s-2,.49-2,1.8a26.15,26.15,0,0,1,0,5.06c-.49,1.63,0,3.26,0,4.9a26.17,26.17,0,0,1,0,5.06c0,8-.16,7.18-.16,15.18,0,.82.82,10.61.49,11.26-.65,1,.49,2,0,2.94s.16,2,.33,2.78c.33,1.31-.16,3.1,1,3.92,2.12,1.63,4.08,3.43,7.18,3.43h9.14a2.6,2.6,0,0,1,2.28,2.28,2.64,2.64,0,0,1-2,2.61,7.93,7.93,0,0,1-2,.16c-3.43,0-6.85-.49-10.12.65a.6.6,0,0,1-.49.16c-3.1-1.31-6,.16-9,0-3.1-.16-6.2,0-9.14,0h-29.54A3.59,3.59,0,0,1,1111.81,363.18Z"/><path class="cls-1" d="M1230.31,363.18c-.65-.82-1.14-2.28-.82-2.78.65-.82,1.47-.65,2.45-.65a25.15,25.15,0,0,0,6.85-1.14,12.23,12.23,0,0,0,3.92-2.45,7.13,7.13,0,0,0,2.12-3.92,37.72,37.72,0,0,0,.82-7.51c.33-22.85-.65-51.74.16-72.3,0-7.34-.16-14.85-.33-22.36a12.2,12.2,0,0,0-.33-3.43c-.65-3.43-3.1-5.55-5.71-7.51a5.49,5.49,0,0,0-2.78-.82h-4.08c-.49-.16-1.14,0-1.63-.16a2.53,2.53,0,1,1,0-5.06h7.67c6.2,0,12.57.16,18.77.16,2.28,0,4.41,0,6.69-.16,2.12,0,4.41.33,6.53-.49,1.14.65,3.1,0,4.24,0h5.55c13.22,0,23.34,1,35.58,0,2.61-.33,8.32.16,10.94.16,2.28,0,3.1.65,3.59,3.26l1,6.37c1,7.18.82,14.52,1,21.71,1.14,4.41.82,8.81,1,13.22,0,1-.49,1.63-1.47,1.63a12.33,12.33,0,0,1-2.45.16,2.53,2.53,0,0,1-2-1.63,26.72,26.72,0,0,1-1.14-4.9,18.69,18.69,0,0,0-2-6.69c-.82-2-1.14-4.24-2.45-6-.49-.49-.49-1.31-.82-1.8a10,10,0,0,0-.82-2c-2.45-3.26-4.41-6.69-7.67-9.3-1.8-1.47-3.59-2.94-5.55-4.24a19.82,19.82,0,0,0-7.84-3.43c-2.12-.33-4.24-1.14-6.36-1.63a17.71,17.71,0,0,0-2.94-.16,67.94,67.94,0,0,0-8.16,0c-3.75.16-5.71,1.8-6.53,5.22-.33,1.63.33,3.43-.33,4.9a1.41,1.41,0,0,0,0,1.14c.65,3.1,0,6.69.16,10.12.16,6.2.16,12.57.16,18.77a184.44,184.44,0,0,0,.16,18.77,1.17,1.17,0,0,0,1.31,1.14c1.47,0,3.75,0,5.39.16a10.58,10.58,0,0,0,6.2-1.79,21.83,21.83,0,0,0,9.3-10.94,43.86,43.86,0,0,0,3.1-10,15.68,15.68,0,0,1,1-2.94c.33-1,1.14-1,2.12-1,.82,0,1.63,0,2,1a6.13,6.13,0,0,1,.82,2.94v20.89a18.57,18.57,0,0,1-.49,2.94c0,1-.49,2.12-.16,3.1.82,2,.16,3.75,0,5.71q-.25,5.63,0,11.26c0,2.61-.49,5.39.65,8v.49c-.16.65-2.28,1.63-3.59,1.63a2.2,2.2,0,0,1-2-1.31,4.75,4.75,0,0,1-.33-1.47,55.15,55.15,0,0,0-6-18.12c-1.14-2.12-2.61-3.75-4.73-4.24-2.45-.49-4.73-1.63-7.51-1.31-1.47.16-3.75,0-5.22,0s-2,.49-2,1.8a26.15,26.15,0,0,1,0,5.06c-.49,1.63,0,3.26,0,4.9a26.17,26.17,0,0,1,0,5.06c0,8-.16,7.18-.16,15.18,0,.82.82,10.61.49,11.26-.65,1,.49,2,0,2.94s.16,2,.33,2.78c.33,1.31-.16,3.1,1,3.92,2.12,1.63,4.08,3.43,7.18,3.43h9.14a2.6,2.6,0,0,1,2.28,2.28,2.64,2.64,0,0,1-2,2.61,7.93,7.93,0,0,1-2,.16c-3.43,0-6.85-.49-10.12.65a.6.6,0,0,1-.49.16c-3.1-1.31-6,.16-9,0-3.1-.16-6.2,0-9.14,0h-29.54A3.59,3.59,0,0,1,1230.31,363.18Z"/><path class="cls-1" d="M1408.21,365a25.19,25.19,0,0,1-2-3.59c-2.28-6.2-3.43-12.4-5.88-18.61-1.63-4.08-2.61-8.32-4.41-12.24a60.58,60.58,0,0,1-2.61-7.67,28.34,28.34,0,0,0-2.28-6.2c-1-1.8-.33-3.92-1.47-5.88a17.44,17.44,0,0,1-2.12-5.06c-.82-2.77-1.14-5.71-2.28-8.16-1.31-2.45-1.8-5.22-2.45-7.83-1.31-4.9-3.59-9.63-4.9-14.69-.65-2.61-2.28-6-2.28-8.49,0-2.61-.82-4.41-2.12-6.85-.65-1.47-1-2.94-1.8-4.41-1,.65-.65,3.1-.65,4.57,0,17.46.82,34.93.16,52.55v8.65c.16,1.47-.16,2.94.33,4.41.49,1.31-.65,2.61.33,3.92a1.53,1.53,0,0,1,.16,1.47c-1.14,2.77.16,5.55.16,8.32a67.91,67.91,0,0,0,0,8.16c0,4.73,2.28,7.84,6.53,10a16.27,16.27,0,0,0,7.34,1.79h4.57c1.47.16,1.79.49,2,1.8a2.67,2.67,0,0,1-2,3.1,7.94,7.94,0,0,1-2,.16c-9,0-16.32-.65-27.09,0-2.12,0-4.24-.49-6.37-.33-2.12.33-4.41.16-6.69.33a4.2,4.2,0,0,1-3.1-1.63,2,2,0,0,1,1-3.26,9,9,0,0,1,2.94-.16,16.08,16.08,0,0,0,10.28-3.59c3.1-2.45,5.39-5.71,5.39-10,.16-2.45.16-4.73.16-7.18,0-2.12.16-4.41,0-6.53a36.41,36.41,0,0,1,.33-6c0-2-.65-3.92-.16-5.88.33-2-.33-3.92-.16-6,.16-2,0-3.92,0-6v-6c0-12.57.65-25.14,0-37.7,0-5.55-.16-9.47-.16-14.85v-2.61c-.16-3.43-2.12-6.53-4.9-7.18a50.46,50.46,0,0,0-10.12-1.47c-2,.65-3.1-.33-3.75-2.12a1.5,1.5,0,0,1,1.31-2.12c1.31-.16,2.78-.16,4.08-.33a7.94,7.94,0,0,0,3.43-.33c1.79.65,7.67.33,8.16.33,6.53,1.31,6.53,0,13.22.16,3.43,0,7.67.33,11.1-.65,1.3.82,3.43.49,4.73.49,4.24.16,4.41.65,6,4.89.65,2,.65,4.24,1.63,6.2.33,3.26,2,6,2.45,9.14a28.74,28.74,0,0,0,2,5.22c2.28,6.85,2.78,12.08,5.88,18.61a19.89,19.89,0,0,1,2,8c2.61,3.75,2.94,8.49,4.57,12.73,1.63,4.08,2.61,9.14,4.08,15.5.82,3.1,1.79,4.08,2.94,7,2-3.75,2.12-9,3.92-13.38,0-3.75,2-6.85,2.78-10.28,1.14-4.57,2.45-6.85,3.43-11.26.82-3.59,1.47-7.51,2.28-11.26a174.62,174.62,0,0,1,5.06-20.73,29.84,29.84,0,0,0,1.47-6.36c.16-2.78,2-7.67,2.78-11.1.65-2.77,2.28-2.94,4.89-2.77,5.39.33,10.94.16,16.48.16,1.8,0,3.59-.49,5.39-.49a134.26,134.26,0,0,0,16.16.16c1.79,0,3.75-.49,5.39.65a2.1,2.1,0,0,1,.82,2.28,2.74,2.74,0,0,1-1.47,1.8,4.83,4.83,0,0,1-1.47.33,32.74,32.74,0,0,0-4.08.16c-3.92.16-6.36,2.45-7.51,6.37a23.45,23.45,0,0,0-.82,6.69c0,10.45,0,20.73-.16,31.17,0,2.45.33,4.9-.49,7.51-.33,1.3.65,2.77.65,4.41-.16,3.26,0,6.53-.16,9.63,0,2-.49,3.75-.33,5.55A26.31,26.31,0,0,1,1479,315c.16,10,.16,20.08.16,30a25.26,25.26,0,0,0,2.28,9.79,5.22,5.22,0,0,0,3.26,2.94,28.58,28.58,0,0,0,6.36.49,5,5,0,0,1,3.92,2.12,3,3,0,0,1-.16,2.61c-1.31,1.14-2.78,1.14-4.57,1-5.71-.16-11.59.65-17.3-.65a12.33,12.33,0,0,0-2.45-.16,65.8,65.8,0,0,1-20.4.16c-2,0-3.92.49-6,.65-1.8.16-3.75.16-5.55.16-.82,0-1.63-.16-2.61-.16a2.72,2.72,0,0,1-1.63-2.28,2.18,2.18,0,0,1,1.63-2.28,11.55,11.55,0,0,1,4.08-.33c2.45.33,4.08-1,5.71-2.61a11.26,11.26,0,0,0,3.1-6.2,55.45,55.45,0,0,0,.82-11.59c0-8.65-.49-17.3-.49-26,.49-8.16.49-17,.49-25.62,0-1.63-.49-3.43-.49-5.22,0-2.94.49-5.88.49-8.81-.16-4.57-.16-9-.16-13.38,0-1.31-.16-2.78-.16-4.08-.16-.33-.49-.65-.82-.49s-1,.33-1,.49c-.65,2.94-2.45,5.71-2.78,8.81a4.63,4.63,0,0,1-.65,2,30,30,0,0,0-1.47,6.85,39.5,39.5,0,0,1-1.63,7.34c-1,4.08-2.61,8.16-2.77,12.4a9.2,9.2,0,0,1-.65,2,47.46,47.46,0,0,0-2,6.85c-.49,3.26-1.63,6.53-2.45,9.79l-3.92,17.46c-.65,2.61-2.28,6.69-2.28,9.47-1.47,2.94-1.47,6.2-2.45,9.3-1,3.59-1.31,7.34-2.45,10.77-.65,2-.33,4.08-1.31,5.88-.49,1-1,1.79-2.12,1.79-2.78,0-5.71-.49-8.32,0A3.19,3.19,0,0,1,1408.21,365Z"/><path class="cls-1" d="M1564.89,364.15a1.31,1.31,0,0,1-1-1.63,3,3,0,0,1,3.43-2.61,6.15,6.15,0,0,0,3.43-.16,23.8,23.8,0,0,1,3.59-.49c2.61.16,3.92-1.47,5.22-3.26a2.64,2.64,0,0,0,.49-1.47c.16-2,.65-4.08-.49-6a58.82,58.82,0,0,0-2.45-10.28l-2-5.06c-.49-1.47-.65-2.78-1.63-3.75-1.14-1-2.94-.33-4.41-.33-2.45,0-4.73.16-7.18,0-1.47-.16-3.1-.65-4.57,0-1.31.65-2.45-.65-3.92-.33a32.5,32.5,0,0,1-8,.49c-2.45-.16-4.9.16-7.51,0a2.7,2.7,0,0,0-2.94,2.12c-1.31,3.75-2.77,7.67-3.75,11.26-.65,2.28-1.3,4.57-2.12,6.85-1.63,4.08-.16,7.18,3.75,8.81a14.46,14.46,0,0,0,6.36,1c2.12.16,4.08,0,6.2.16a2.4,2.4,0,0,1,2.12,2,2.29,2.29,0,0,1-1.63,2.78,41.21,41.21,0,0,1-4.57.16c-3.27,0-7.51.33-9.63,0-4.24,0-8.49,0-12.73.16-1,0-2.12-.65-2.94-.33a9.28,9.28,0,0,1-5.55.16c-1.47-.49-2.94.16-4.57,0-1.14-.16-1.63-1-2.12-2a1.59,1.59,0,0,1,1.47-2.12c1.63-.16,3.26-.16,5.06-.16a7.42,7.42,0,0,0,4.57-1.63,23.25,23.25,0,0,0,9.14-11.75c1.79-5.39,3.43-10.61,5.22-15.83,2.28-5.88,4.08-11.75,6.53-17.46.49-1.14.82-2.28,1.14-3.26,1.47-5.22,3.75-10.12,4.73-15.51.16-1.14,1.14-2.12,1.47-3.26,1.14-4.9,3.1-9.47,4.57-14.36,2.78-8.81,5.39-17.63,8.16-26.44.82-3.1,2.28-6,2.78-9.14a40.73,40.73,0,0,1,3.1-8.49c.65-1.47,1.47-2.12,2.61-2,2,.16,4.08-.16,5.88-.16,2,0,1.79,1,2.61,2.61a4.91,4.91,0,0,1,.65,1.31c2,5.22,3.75,10.45,5.55,15.67.65,2,1.47,3.92,2.12,5.71l2.94,8.65c1.14,3.26,2.45,6.53,3.75,10a21.14,21.14,0,0,1,1.63,5.71c.49,2.28,1.8,4.41,2.45,6.53l8.32,25.95a18.22,18.22,0,0,0,2,5.71,3.89,3.89,0,0,1,.33,1.47c.65,5.06,2.61,9.79,4.57,14.36,1.79,3.92,2.94,8.32,4.73,12.24a42.42,42.42,0,0,0,2.61,5.55c2.12,3.59,5.39,6.53,9.79,6.69a6.25,6.25,0,0,1,4.08,1.79c1,.65.65,2.45-.49,2.94a2.32,2.32,0,0,1-1,.33c-2.61-.16-5.22.33-8,.16-5.88-.33-11.91-.16-17.79-.16-7.51,1.47-15.18,0-22.85.33-2,.16-3.92,0-6,.65C1569.79,364.15,1567.34,365.13,1564.89,364.15Zm-4.73-40.64c2.78-.16,5.55.33,8.16-.16.82-.16,2,0,2.45-.49,1-.82-.49-2.45-.65-3.27-1.47-6.2-3.92-12.08-5.71-18.28a180.85,180.85,0,0,0-6.37-18c-1.14-2.45-1.14-5.22-2.77-7.51a2.48,2.48,0,0,0-1.63,2.12c-1.14,4.73-3.43,9.14-4.24,14-2.12,4.08-3.1,8.49-4.57,12.73a78.76,78.76,0,0,1-3.59,10.45c-1,2.12-2,4.24-2.78,6.53-.49,1.14.16,1.79,1.47,1.79a18.4,18.4,0,0,0,5.06.16C1551.19,323.52,1551.84,324,1560.16,323.52Z"/><path class="cls-1" d="M1727.78,363a54.82,54.82,0,0,1-4.57-6.2l-9.47-15.34a10.73,10.73,0,0,1-2.12-4.57c-2.28-3.75-5.22-7.34-7.51-11.1-1.63-2.78-3.26-5.55-4.73-8.49-2-6.69-4.24-5.71-10-16.32-3.1-5.06-6.2-10.12-9.3-15l-3.26-5.22c-3.92-6-7.51-12.4-10.94-18.77-.65-1-.82-2-1.47-2.61a2.28,2.28,0,0,1-.49-.65c-.33,0-.33,1.63-.49,2.12.82,2.94.16,6,.16,9,.16,5.06,0,10.12.16,15.34,0,.49-.16,1-.16,1.47.16,2,0,4.08.82,6-1,1.79-.49,3.59-.65,5.55v1c.82,2.45.49,4.9.65,7.34.16,2.28-.16,4.73-.16,7a23.76,23.76,0,0,0,.33,5.88,37.22,37.22,0,0,1,0,6c0,3.75-.16,7.51-.16,11.26,0,3.92,1,7.67,1.14,11.59,0,2.77,2.12,5.06,4.24,6.85,2,1.79,4.24,3.26,7.18,3.26,1.14,0,2.28.82,3.43.65,1.14-.33,2.28.33,3.43.16a4,4,0,0,1,3.59,1.63c.82,1.14.33,3.1-1,3.26-5.06.49-8.65-.33-15.18,0-1.14-.33-2.29.65-3.43-.16-2.94.33-6.53-.65-9.46-.33-2.94.16-4.57.33-7.34.33-1.31,0-3.75-.49-4.9-.16-1,.33-2,.65-2.94,0-.65-.33-1.14,0-1.8.16a4.68,4.68,0,0,1-4.41-.33c-1.31-.65-1.63-1.14-1.47-2.77a1.4,1.4,0,0,1,1.14-1.47h1.47a20.28,20.28,0,0,0,9.79-2,23.33,23.33,0,0,0,6-3.75c.49-.33.65-1.14,1-1.63a22.13,22.13,0,0,0,2.94-9.63,42.71,42.71,0,0,0,.16-4.57,34,34,0,0,0,0-4.08c-.33-1.47.49-2.94.33-4.41a64.12,64.12,0,0,1-.33-8c.33-5.55.16-11.26,0-16.81-.16-4.08.49-8.16-.16-12.08-.16-.49.16-1,.16-1.47.16-.82.65-1.79.33-2.45-.82-2.28-.33-4.57,0-6.85a6.68,6.68,0,0,0,0-3.1c-.33-1.47-1-2.94-.49-4.41s-.65-2.61-.16-3.92c.65-2.12,0-4.24,0-6.37-.16-2.12.49-3.92.16-6a29.18,29.18,0,0,1-.33-6.53,6.89,6.89,0,0,0-1.14-4.41c-2.45-3.43-5.39-6.53-9.63-7.34-2.45-.49-4.9-1.47-7.51-1.31a3.87,3.87,0,0,1-2-.49c-.49-.33-1.14-.82-1-1.63a2.88,2.88,0,0,1,2.94-2.77c1.8,0,3.75-.33,5.55.49,1.14.65,2.12-1,3.43-.16,1.63-.49,3.43,0,5.22-.16a29.79,29.79,0,0,1,5.39.33c3.59-.49,7.18,0,10.77,0a16,16,0,0,0,5.55-.49,2.18,2.18,0,0,1,1.47-.16c1.63,1,3.59.65,5.39.65a6.85,6.85,0,0,1,6.53,3.92c2.12,4.73,5.06,8.81,7.83,13.06l1.14,2.12a43.9,43.9,0,0,0,4.57,7.51,14.11,14.11,0,0,1,1.14,1.63c2.45,4.57,4.9,9.14,7.51,13.71a37.38,37.38,0,0,0,2.78,4.9c1.8,2.45,2.94,5.22,4.57,7.67s3.1,4.9,4.41,7.34a52.28,52.28,0,0,0,5.22,9.3c2,2.78,3.43,6,5.22,9.14,2,3.26,3.75,6.37,5.71,9.47a1.08,1.08,0,0,0,.82.65c.65,0,.49-.65.65-1,0-3.92-.16-8.16,0-11.75-.33-7.51-.65-19.75-.16-29.54.16-2-.33-3.92-.16-5.88a30,30,0,0,0-.49-5.39c-.16-2.77-.65-5.71.49-8.49a2.43,2.43,0,0,0,.16-1c-1.14-2.78-.49-5.71-.65-8.65l-.49-2.94c-1.47-5.39-2.61-6.86-7.83-9.3a12.11,12.11,0,0,0-6.85-1.47c-1.8.16-3.75,0-5.55,0a2.44,2.44,0,0,1-1.8-2.78,3,3,0,0,1,2.12-2.45c8,.49,15.83-.33,24,.33a29.31,29.31,0,0,0,6.53.16c2.12-.49,4.41-.16,6.69-.33h6.53a19.71,19.71,0,0,1,3.1.16c1,.16,1,1.14,1.47,2,.33.82-.33,1.14-.65,1.63a3.48,3.48,0,0,1-2.77,1.31c-1,0-2,.16-2.94.16a13,13,0,0,0-8.65,3.59,15.29,15.29,0,0,0-5.39,8.49c-.16.49-.49.82-.49,1.31-.16,5.39-.82,10.45-.65,15.67.33,6.2.33,12.24.33,18.44,0,2.28-.16,4.57-.16,6.85.16,2.45.33,4.73.33,7,0,5.88.16,11.59.16,17.46,0,14.69-.82,29.54-.16,44.23,0,1.79-.16,2-2,2.45-1.31.33-2.45.82-3.92.16-1.31-.49-2,.33-4.24.16a26.29,26.29,0,0,1-3.59,0C1730.39,365,1729.09,364.65,1727.78,363Z"/><rect class="cls-1" x="532.8" y="124.34" width="7.87" height="48.59" rx="0.56" ry="0.56" transform="translate(1073.46 297.26) rotate(-180)"/><rect class="cls-1" x="547.78" y="124.34" width="7.87" height="48.59" rx="0.56" ry="0.56" transform="matrix(-1, 0, 0, -1, 1103.43, 297.26)"/><path class="cls-1" d="M520.59,126.22H489.43a12.36,12.36,0,0,0-12.37,12.37v18.56a12.35,12.35,0,0,0,12.37,12.37h31.16a3.34,3.34,0,0,0,3.34-3.34V129.57A3.34,3.34,0,0,0,520.59,126.22Zm-9.26,35.71H490.47a4.61,4.61,0,1,1,0-9.22h20.85a4.61,4.61,0,0,1,0,9.22Zm0-18.44H490.47a4.61,4.61,0,1,1,0-9.22h20.85a4.61,4.61,0,1,1,0,9.22Z"/><path class="cls-1" d="M1644.68,124.57H567.09a4.3,4.3,0,0,0-4.29,4.3v38a4.3,4.3,0,0,0,4.29,4.3H1644.68l92.75-15.69,0-15.53Zm-8.93,37.36H575.92a4.61,4.61,0,0,1,0-9.22H1635.76a4.61,4.61,0,0,1,0,9.22Zm0-18.44H575.92a4.61,4.61,0,0,1,0-9.22H1635.76a4.61,4.61,0,0,1,0,9.22Z"/><path class="cls-1" d="M1756.9,143.3,1743,140.92v13.69l14-2.55a4.44,4.44,0,0,0,0-8.76Z"/><path class="cls-1" d="M533.91,113.75c2.07,0,4.2.05,6.34.1,6.32.15,12.86.3,18.68-.87,6.93-1.4,14.38-4.78,22.76-10.33A259.61,259.61,0,0,0,603.85,85.5c10.78-9,21.93-18.29,35.2-24.76A129.48,129.48,0,0,1,702.33,48c31.84,1.63,61.78,15.76,90.74,29.43l8.7,4.09c31.47,14.7,60.25,27,93.8,29.35,27.25,1.87,62.34-3,74.43-37.06a2.37,2.37,0,0,0,0-.68,12.28,12.28,0,1,1-2.66-21.49s0,0,0,0,.25.11.37.15l.08,0c6.73,2.12,12.7,11.83,8.21,24.18-14.45,39.72-56.81,43-81,41.34-34.66-2.38-64-15-96.09-29.94l-8.73-4.1C761.92,69.86,732.57,56,702,54.44a123.5,123.5,0,0,0-60.13,12.11C629.31,72.67,619,81.31,608,90.46A263.07,263.07,0,0,1,585.27,108c-9.09,6-17.29,9.72-25.05,11.28a68.25,68.25,0,0,1-13.45,1.1c-2.23,0-4.46-.06-6.67-.11s-4.17-.1-6.19-.1a3.23,3.23,0,1,1,0-6.46Z"/></g></svg>