<svg xmlns="http://www.w3.org/2000/svg" width="383.75" height="245" viewBox="0 0 383.75 245">
  <defs>
    <clipPath id="a">
      <path d="M0 0h306.529v195.148H0V0z">
</path>
    </clipPath>
  </defs>
  <g clip-path="url(#a)" fill="#fff" fill-rule="evenodd" transform="matrix(1.25 0 0 -1.25 0 245)">
    <path d="M79.737 3.66c-1.256.222-2.436.406-3.607.641-3.547.711-6.982 1.829-10.383 3.091-.635.237-1.451-.075-2.185-.111-.825-.041-1.304-.464-1.721-1.234C60.097 2.822 57.223 1.289 53.9.574 48.028-.69 42.383.199 36.97 2.781c-.97.463-1.802 1.24-2.892 2.009 1.27 1.008 2.31 1.925 3.434 2.708 4.325 3.012 9.04 4.729 14.296 4.49 2.933-.134 5.625-1.176 8.203-2.576.62-.337 1.196-.772 1.836-1.051.386-.168.856-.123 1.289-.175l.065.296c-.664.347-1.323.705-1.993 1.037a59.106 59.106 0 0 0-14.312 9.904c-1.114 1.045-2.356 1.051-3.611 1.316-.137.029-.36-.141-.477-.28-2.389-2.819-5.504-3.491-8.872-3.121-6.078.667-11.276 3.429-15.793 7.654-.701.655-1.229 1.515-1.829 2.285-.351.449-.178.725.285.918 2.982 1.239 6.035 2.084 9.275 2.17 4.15.11 8.112-.621 11.561-3.109 1.85-1.333 3.426-3.085 5.107-4.67.451-.425.777-1.038 1.669-.797-.53.592-.998 1.144-1.496 1.665-4.484 4.686-8.227 9.968-11.638 15.542-.564.922-1.803 1.394-2.742 2.053-.074.051-.263-.04-.38-.103-3.878-2.038-7.576-1.097-11.019 1.041-3.946 2.451-6.893 6.044-9.391 10.036-1.186 1.896-2.129 3.907-2.483 6.3 1.324 0 2.605.101 3.865-.02 2.748-.266 5.365-1.036 7.823-2.407 3.583-2 6.544-4.715 8.773-8.261.996-1.587 1.807-3.3 2.747-4.927.291-.502.731-.91 1.103-1.36l.275.213c-.265.526-.525 1.056-.797 1.579-3.594 6.882-6.37 14.114-8.575 21.607-.328 1.118-1.242 2.05-1.909 3.05-.067.099-.315.12-.467.096-4.095-.642-6.968 1.581-9.496 4.508-3.26 3.775-5.363 8.265-7.079 12.971-.78 2.142-1.352 4.342-1.324 6.666.002.138.037.275.064.468 2.137-.529 4.03-1.516 5.81-2.727 4.214-2.868 7.555-6.606 9.9-11.271 1.457-2.896 2.265-6.031 2.883-9.225.085-.438.308-.847.467-1.269l.297.096c-.112.58-.246 1.157-.334 1.742-.6 4.015-1.292 8.02-1.75 12.053-.336 2.965-.264 5.979-.575 8.947-.121 1.142-.791 2.224-1.239 3.32-.045.111-.281.169-.436.193-2.931.458-4.857 2.399-6.394 4.842-1.965 3.119-3.079 6.621-3.927 10.214-.861 3.649-1.425 7.35-1.367 11.125.018 1.194.147 2.387.231 3.661.243-.079.386-.09.486-.164 3.195-2.376 5.788-5.327 7.825-8.839 2.164-3.731 3.653-7.73 4.073-12.067.248-2.559.07-5.161.129-7.742.012-.556.222-1.107.341-1.661l.274.064c.067 1.479.168 2.958.195 4.438.107 5.815.725 11.577 1.549 17.321.051.356-.12.748-.194 1.122-.16.802-.304 1.609-.497 2.402-.062.254-.206.585-.404.689-3.526 1.861-4.965 5.197-5.637 8.969-1.117 6.262-1.039 12.544.177 18.791.247 1.272.708 2.499 1.071 3.747l.335.093c1.199-1.856 2.537-3.631 3.57-5.585 2.626-4.964 3.765-10.332 3.22-15.992-.279-2.901-.904-5.764-1.331-8.652-.128-.864-.118-1.75-.171-2.627l.281-.051c.075.154.164.304.22.465.065.192.113.394.151.594 1.235 6.539 3.216 12.834 5.504 19.044.426 1.155.191 2.583.216 3.886.004.171-.245.369-.406.521-2.15 2.039-3.123 4.675-3.416 7.608-.494 4.947.372 9.746 1.566 14.501.763 3.043 1.756 5.987 3.363 8.67.17.284.378.543.629.898 1.343-2.64 2.298-5.276 2.822-8.075.587-3.128.714-6.289.505-9.46-.293-4.435-1.398-8.643-3.413-12.567-.831-1.62-.893-1.736-.638-2.995.564 1.211 1.076 2.299 1.58 3.39 2.53 5.475 5.599 10.608 8.829 15.657.646 1.011.524 2.564.734 3.872.016.103-.127.25-.221.353-1.467 1.627-1.958 3.664-2.107 5.795-.256 3.667.484 7.177 1.81 10.548 1.58 4.015 3.675 7.705 6.564 10.855.599.652 1.267 1.235 2.017 1.96.129-.466.263-.801.312-1.151.895-6.381.298-12.618-1.746-18.692-1.16-3.446-3.028-6.462-5.389-9.137-.648-.733-.767-1.551-.708-2.632 1.249 1.617 2.388 3.123 3.56 4.601 3.171 4.001 6.569 7.775 10.306 11.206.163.15.361.422.337.609-.357 2.821.656 5.168 2.268 7.306 2.374 3.147 5.582 5.003 9.09 6.375 2.219.868 4.453 1.697 6.76 2.574-.028-.254-.02-.533-.093-.787-1.523-5.228-3.99-9.81-8.318-13.072-2.477-1.868-5.207-3.115-8.309-3.151-1.335-.016-2.08-.989-2.889-1.75-3.379-3.181-6.455-6.671-9.28-10.4-.064-.084-.092-.196-.143-.306 1.268-.257 1.508-.1 1.992 1.03 1.184 2.76 3.342 4.316 6.003 5.227 2.14.732 4.327.912 6.55.577 2.782-.418 5.562-.854 8.457-1.299-1.218-1.92-2.678-3.391-4.325-4.66-4.08-3.141-8.595-4.261-13.555-3.016-.961.242-1.841.82-2.779 1.187-.383.15-.818.181-1.232.202-.242.013-.505-.187-.733-.144-1.053.204-1.54-.498-2.073-1.255-3.39-4.825-6.421-9.88-9.003-15.228-.062-.128-.104-.267-.158-.409 1.127-.154 1.658.218 1.884 1.276.897 4.202 3.638 6.548 7.355 7.766 1.668.546 3.426.886 5.167 1.072 2.699.288 5.418.364 8.354.543-.561-.92-1.012-1.743-1.539-2.507-2.042-2.956-4.438-5.522-7.583-7.193-3.527-1.875-7.176-2.776-11.09-1.379-.347.124-.8.031-1.176-.072a9.09 9.09 0 0 1-1.642-.638 1.34 1.34 0 0 1-.599-.634c-1.585-3.9-3.242-7.772-4.678-11.731-1.058-2.919-1.823-5.954-2.71-8.94-.098-.326-.148-.668-.227-1.034 1.258.302 1.54.656 1.541 1.843.003 4.783 2.26 8.206 5.919 10.794 2.762 1.952 5.842 3.188 8.929 4.416 1.46.58 2.912 1.179 4.613 1.869-.496-1.481-.859-2.809-1.375-4.068-1.506-3.671-3.466-7.034-6.349-9.725-2.546-2.376-5.357-4.219-8.814-4.744-.11-.016-.225-.05-.332-.034-1.509.219-2.759-.248-3.845-1.394-.373-.394-.7-.671-.846-1.276-1.146-4.721-1.883-9.519-2.395-14.347-.366-3.454-.498-6.936-.74-10.499 1.006.537 1.513 1.34 1.383 2.044-.792 4.287.174 8.2 2.361 11.822 2.084 3.455 5.022 6.041 8.062 8.514 1.634 1.328 3.255 2.673 5.046 4.146-.079-1.304-.077-2.486-.234-3.645-.677-4.986-2.072-9.702-4.882-13.871-2.377-3.525-5.22-6.423-9.275-7.749-.286-.093-.527-.376-.754-.608-.135-.138-.162-.402-.305-.517-1.666-1.339-1.449-3.255-1.323-5.064.321-4.617.67-9.234 1.153-13.834.273-2.605.831-5.176 1.261-7.762l.245-.034c.215.516.381 1.064.656 1.544.393.686-.202 1.01-.421 1.459-.988 2.019-1.019 4.172-.84 6.353.36 4.396 2.345 8.103 4.684 11.6 2.266 3.384 4.709 6.636 7.077 9.944.026.038.099.039.212.078.464-2.93.666-5.843.437-8.807-.251-3.241-.899-6.364-2.08-9.364-1.648-4.184-3.823-7.958-7.517-10.557-.362-.255-.617-.718-.844-1.13-.222-.401-.266-.922-.524-1.283-.762-1.069-.523-2.147-.236-3.298 1.91-7.674 4.526-15.06 8.11-22.057.048-.095.118-.177.195-.288.553 1.427.474 1.719-.403 2.789-1.376 1.68-1.866 3.757-2.298 5.856-.673 3.276-.345 6.518.632 9.626 1.447 4.609 3.13 9.136 4.713 13.698.133.382.268.763.461 1.309.18-.335.311-.536.404-.755 2.167-5.058 3.246-10.353 2.816-15.892-.402-5.179-1.672-10.086-4.791-14.298-.251-.338-.265-.865-.401-1.3-.556-1.773-.115-3.268.817-4.851 3.368-5.714 7.18-11.05 11.682-15.837.074-.079.163-.143.255-.222.33 1.321.095 1.874-.923 2.563-1.671 1.132-2.778 2.78-3.711 4.581-1.726 3.334-1.93 6.97-1.688 10.609.296 4.469.853 8.919 1.295 13.377.046.459.08.919.144 1.666.679-.817 1.256-1.424 1.738-2.105 2.998-4.244 4.951-8.939 5.569-14.213.549-4.692.204-9.231-1.36-13.739-.528-1.52-.617-3.403 1.029-4.934 4.996-4.649 10.393-8.616 16.456-11.572.197-.096.409-.158.625-.24.168 1.244-.049 1.505-1.066 1.646-1.408.194-2.524 1.035-3.612 1.926-2.828 2.321-4.349 5.494-5.14 9.039-.755 3.385-1.275 6.829-1.879 10.25-.258 1.46-.466 2.93-.728 4.596.47-.216.824-.339 1.139-.529 6.758-4.08 10.603-10.267 11.788-18.256.284-1.916-.033-3.922.048-5.882.044-1.062.315-2.121.553-3.165.046-.202.392-.374.631-.477 4.461-1.913 9.035-3.425 13.798-4.269 1.223-.217 1.475-.565 1.541-2.123M287.479 118.359c.543 1.18.32 2.213.063 3.28-.895 3.732-1.501 7.514-1.356 11.378.254 6.867 2.571 12.893 6.874 18.08.052.062.136.096.345.239.375-1.267.841-2.459 1.078-3.697 1.258-6.573 1.371-13.171.015-19.734-.715-3.454-2.218-6.444-5.44-8.122-.202-.105-.35-.425-.422-.676-.28-.968-.635-1.937-.736-2.931-.08-.786.185-1.608.274-2.416.325-2.937.717-5.87.941-8.815.283-3.705.426-7.422.808-11.213.132.516.368 1.03.379 1.548.04 1.906-.031 3.816.006 5.723.101 5.299 1.774 10.09 4.4 14.552 1.947 3.311 4.437 6.106 7.468 8.364.134.1.28.179.668.422.07-1.958.252-3.75.176-5.53-.202-4.735-1.058-9.354-2.613-13.814-1.099-3.155-2.397-6.201-4.861-8.508-1.15-1.078-2.444-1.874-3.996-2.071-.51-.065-.667-.36-.892-.761-1.097-1.957-1.109-4.128-1.17-6.281-.178-6.35-1.025-12.606-2.339-18.799-.027-.135-.027-.276.154-.487.163.404.395.795.478 1.217.7 3.542 1.611 7.021 3.402 10.144 3.462 6.041 8.142 10.612 14.633 12.911.132.046.269.08.405.115.023.007.051-.009.308-.069-.148-1.251-.147-2.574-.476-3.801-1.751-6.513-4.471-12.504-9.088-17.371-1.789-1.886-3.886-3.261-6.525-3.44-.28-.02-.585-.092-.836-.006-1.199.411-1.743-.297-2.412-1.209-.97-1.326-1.271-2.882-1.817-4.363-1.606-4.364-3.172-8.747-4.908-13.054-.965-2.395-2.239-4.651-3.372-6.972-.101-.204-.188-.415-.314-.695.809.068 1.135.599 1.416 1.213 1.168 2.548 2.547 4.962 4.3 7.114 3.609 4.43 8.083 7.366 13.621 8.288 1.7.282 3.451.229 5.262.333-.231-2.151-1.014-3.923-1.978-5.593-2.332-4.035-5.237-7.577-8.957-10.251-3.351-2.409-7.055-3.69-11.079-2.007-1.109.463-1.734.107-2.615-.363-1.581-.842-2.152-2.482-3.029-3.86-3.195-5.023-6.796-9.686-10.911-13.912-.177-.181-.332-.383-.538-.62.694-.31 1.043.125 1.446.519 1.53 1.5 2.99 3.098 4.641 4.436 2.826 2.288 6.161 3.25 9.68 3.527 4.03.318 7.893-.437 11.621-2.054.696-.301.768-.545.351-1.188-1.223-1.882-2.849-3.294-4.623-4.549-3.109-2.198-6.426-3.917-10.115-4.744-2.396-.538-4.808-.798-7.236-.144-1.645.445-3.056 1.294-4.188 2.618-.331.388-.671.414-1.156.439-1.845.098-2.95-1.175-4.185-2.253-4.498-3.925-9.405-7.166-14.755-9.666-.17-.079-.319-.205-.54-.348.596-.418 1.052-.297 1.584.024 2.352 1.427 4.788 2.659 7.487 3.208 4.151.844 8.116.113 11.976-1.532 2.908-1.24 5.481-3.03 8.029-5.359-.952-.693-1.77-1.441-2.709-1.942-2.847-1.521-5.922-2.233-9.077-2.639-3.125-.402-6.207-.176-9.225.719-2.987.887-5.431 2.574-6.937 5.544-.154.306-.528.578-.854.685-1.351.442-2.641.43-4.039-.149-3.883-1.609-7.948-2.558-12.069-3.238-.188-.03-.384-.004-.571-.004-.169 1.219.178 1.795 1.261 1.989 4.787.859 9.394 2.354 13.891 4.253.526.222.76.531.918 1.097.382 1.373.412 2.746.31 4.153-.389 5.415 1.115 10.296 3.867 14.817 2.051 3.37 4.858 5.872 8.14 7.833.262.157.551.263.992.471-.139-.928-.249-1.714-.378-2.496-.616-3.716-1.137-7.454-1.89-11.141-.548-2.687-1.366-5.335-3.001-7.565-1.252-1.707-2.702-3.218-4.615-4.128-.451-.214-.937-.412-1.423-.476-1.065-.141-1.228-.323-1.119-1.751 1.366.712 2.695 1.362 3.986 2.088a60.33 60.33 0 0 1 9.489 6.614c1.498 1.274 2.93 2.635 4.353 4.002.248.237.387.685.43 1.055.214 1.865-.172 3.614-.777 5.386-.871 2.553-1.04 5.236-.947 7.956.102 3.036.49 6.005 1.395 8.891a30.057 30.057 0 0 0 5.504 10.181c.128.155.275.294.42.431.034.032.102.024.218.048.196-1.649.399-3.291.585-4.936.258-2.297.576-4.591.739-6.897.278-3.895.52-7.824-.754-11.587-.957-2.83-2.407-5.356-5.06-6.871-.202-.116-.394-.416-.43-.656-.068-.454-.019-.928-.019-1.645.668.688 1.229 1.224 1.744 1.804a83.743 83.743 0 0 1 11.076 15.872c.235.438.24 1.038.266 1.568.019.37-.145.746-.163 1.123-.051 1.066-.482 1.926-1.08 2.782-2.212 3.167-3.304 6.807-3.894 10.633-.996 6.462-.058 12.65 2.469 18.602.098.231.227.449.413.811.37-.992.686-1.848 1.007-2.703 1.67-4.434 3.455-8.822 4.524-13.484.958-4.176.803-8.244-.781-12.218-.266-.667-.572-1.422-1.079-1.856-1.008-.867-1.038-1.832-.574-3.16.51 1.009.991 1.901 1.419 2.819 2.953 6.33 5.249 12.912 6.936 19.732.29 1.172.277 2.16-.253 3.309-.585 1.267-1.219 2.309-2.347 3.151-2.597 1.935-4.27 4.69-5.659 7.638-2.184 4.634-3.179 9.553-3.055 14.706.044 1.855.28 3.707.428 5.562l.207.047c.642-.906 1.291-1.805 1.923-2.718 2.311-3.344 4.743-6.608 6.892-10.064 2.156-3.466 3.438-7.32 3.084-11.548-.107-1.278-.482-2.586-.993-3.755-.31-.709-.433-1.239-.108-1.905.159-.328.296-.669.63-.99.278 1.378.6 2.749.826 4.138 1.05 6.454 1.645 12.954 1.721 19.504.008.84-.278 1.428-.702 2.127-.835 1.377-1.914 2.166-3.369 2.734-2.836 1.109-4.912 3.315-6.746 5.771-4.015 5.377-5.703 11.594-5.997 18.309-.004.086.013.175.028.261.002.02.038.034.116.098 1.045-.873 2.12-1.739 3.161-2.646 2.237-1.948 4.557-3.805 6.659-5.903 2.915-2.91 5.015-6.398 5.558-10.677.188-1.493.262-3.075-.003-4.537-.24-1.313.302-1.935 1.208-2.761 0 .584.011 1.006-.002 1.428-.18 5.545-.71 11.054-1.628 16.516-.42 2.504-.985 4.981-1.499 7.467-.035.174-.182.329-.294.479-.048.066-.152.081-.208.143-1.205 1.367-2.737 1.556-4.438 1.69-2.959.233-5.441 1.826-7.729 3.728-3.61 3.004-5.989 6.925-7.661 11.361-.394 1.044-.71 2.12-1.138 3.406.965-.403 1.702-.715 2.443-1.02 3.769-1.549 7.648-2.841 11.047-5.249 2.804-1.986 4.958-4.471 5.678-8.052.171-.855.252-1.738.288-2.612.059-1.401.09-1.492 1.596-2.103-.345 1.321-.646 2.545-.985 3.757-1.682 6.017-3.842 11.844-6.388 17.516-.304.676-.701 1.067-1.428 1.393-1.215.546-2.267.541-3.513.171-3.314-.985-6.44-.047-9.412 1.454-4.013 2.029-6.885 5.353-9.172 9.282-.097.169-.163.359-.3.667.843-.065 1.581-.127 2.318-.178 3.293-.226 6.608-.177 9.846-1.043 2.873-.769 5.449-2.045 7.158-4.68.628-.967 1.026-2.132 1.362-3.26.372-1.252.601-1.54 2.093-1.586-.855 1.661-1.579 3.307-2.502 4.822-2.315 3.8-4.725 7.539-7.084 11.31-.349.557-.809.68-1.412.854-1.281.37-2.267-.088-3.379-.601-4.104-1.889-8.206-1.456-12.182.423-2.984 1.411-5.406 3.617-7.41 6.54 1.224.21 2.358.42 3.496.597 1.851.288 3.699.63 5.56.813 3.579.352 6.945-.34 9.751-2.831.869-.771 1.556-1.842 2.117-2.898.651-1.222.552-1.28 2.162-1.245-.318.454-.554.87-.861 1.215a2287.6 2287.6 0 0 1-8.454 9.418c-1.197 1.325-2.65 1.874-4.421 2.077-4.31.494-7.652 2.966-10.422 6.326-2.305 2.793-3.813 6.048-4.809 9.572-.085.3-.112.618-.185 1.04 3.25-1.329 6.441-2.493 9.517-3.93 3.399-1.589 6.187-4.006 7.864-7.601.685-1.474.992-3.038.821-4.691-.024-.218.046-.54.19-.672 5.142-4.676 9.617-9.992 13.74-15.648.029-.04.092-.052.139-.076.213.93.061 1.692-.487 2.306-3.76 4.209-5.976 9.203-6.966 14.844-.58 3.305-.8 6.63-.638 9.977.067 1.389.319 2.768.521 4.425.782-.735 1.415-1.246 1.954-1.849 4.591-5.146 7.632-11.129 8.518-18.152.364-2.893.229-5.847-1.433-8.394-.573-.879-1.055-1.618-.74-2.759.257-.933.217-1.91.821-2.783 3.041-4.398 5.674-9.065 8.042-13.893.751-1.529 1.428-3.098 2.138-4.649l.257.057c-.112.614-.083 1.31-.357 1.831-1.901 3.633-3.223 7.464-3.706 11.582-.789 6.715-.084 13.613 3.133 19.532.22-.301.434-.55.603-.829 1.982-3.293 3.016-6.96 3.857-10.705.928-4.128 1.523-8.291 1.08-12.543-.302-2.906-1.298-5.488-3.374-7.547-.261-.258-.408-.722-.46-1.113-.357-2.743.888-5.098 1.733-7.543 1.639-4.737 2.979-9.562 3.966-14.494.09-.454.22-.899.361-1.472">
</path>
  </g>
  <path d="M65.106 154.326l6.745-6.916h3.493l-7.838 7.848 7.882 9.486h-3.502l-6.242-7.713-.538.54v7.173H62.49V147.41h2.616v6.916M77.724 147.41h2.616v17.334h-2.616V147.41zM84.504 164.744V146.23l12.641 13.225V147.41h2.616v18.39L87.12 152.609v12.135h-2.616M113.009 155.716h7.162v.575c0 1.3-.155 2.453-.461 3.458-.299.929-.803 1.795-1.515 2.604-1.61 1.81-3.656 2.717-6.14 2.717-2.425 0-4.503-.877-6.231-2.627-1.73-1.758-2.594-3.87-2.594-6.332 0-2.514.879-4.647 2.637-6.399 1.76-1.76 3.9-2.64 6.422-2.64a8.8 8.8 0 0 1 3.796.833c1.122.552 2.225 1.451 3.31 2.694l-1.864 1.785c-1.421-1.893-3.154-2.841-5.196-2.841-1.835 0-3.373.633-4.615 1.897-1.241 1.244-1.863 2.8-1.863 4.671 0 1.931.692 3.521 2.077 4.771 1.295 1.16 2.698 1.742 4.21 1.742 1.286 0 2.442-.436 3.47-1.304 1.025-.874 1.596-1.924 1.716-3.142h-4.321v-2.462M133.261 149.991l-2.122 1.258c-.398-.687-.775-1.137-1.135-1.347-.374-.238-.856-.36-1.448-.36-.726 0-1.326.208-1.807.618-.479.406-.719.914-.719 1.527 0 .845.629 1.528 1.887 2.043l1.728.709c1.407.568 2.438 1.262 3.088 2.082.65.819.977 1.825.977 3.013 0 1.593-.532 2.912-1.595 3.952-1.07 1.049-2.4 1.573-3.986 1.573-1.503 0-2.746-.445-3.726-1.337-.967-.89-1.568-2.145-1.808-3.76l2.65-.585c.12 1.02.329 1.72.629 2.112.539.748 1.325 1.123 2.356 1.123.816 0 1.495-.275 2.032-.82.54-.548.81-1.238.81-2.077 0-.338-.048-.645-.14-.928a2.43 2.43 0 0 0-.438-.775 3.513 3.513 0 0 0-.769-.66 7.7 7.7 0 0 0-1.124-.592l-1.672-.693c-2.373-1.003-3.56-2.47-3.56-4.403 0-1.3.498-2.389 1.495-3.267.993-.88 2.233-1.325 3.715-1.325 1.998 0 3.558.974 4.682 2.92M141.971 149.869v14.875h-2.614v-14.875h-3.986v-2.459h10.575v2.459h-3.975M149.505 156.031c0 1.918.644 3.493 1.93 4.729 1.28 1.234 2.759 1.853 4.434 1.853 1.82 0 3.355-.632 4.604-1.89 1.25-1.27 1.874-2.82 1.874-4.646 0-1.848-.617-3.396-1.852-4.648-1.226-1.255-2.746-1.887-4.558-1.887-1.803 0-3.327.632-4.57 1.887-1.24 1.243-1.862 2.777-1.862 4.602zm-2.639-.032c0-2.439.895-4.535 2.684-6.286 1.78-1.752 3.921-2.628 6.421-2.628 2.47 0 4.588.882 6.354 2.649 1.774 1.769 2.661 3.889 2.661 6.365 0 2.494-.892 4.606-2.672 6.344-1.789 1.743-3.948 2.616-6.478 2.616-2.237 0-4.247-.776-6.029-2.324-1.96-1.714-2.94-3.959-2.94-6.736M168.276 164.744V146.23l12.639 13.225V147.41h2.616v18.39l-12.64-13.191v12.135h-2.615M207.59 148.344v3.096c-1.512-1.264-3.079-1.897-4.696-1.897-1.779 0-3.28.64-4.5 1.92-1.23 1.274-1.841 2.83-1.841 4.67 0 1.82.61 3.353 1.84 4.603 1.228 1.25 2.732 1.876 4.513 1.876.923 0 1.704-.15 2.348-.45.359-.15.731-.353 1.116-.607.385-.253.792-.56 1.22-.919v3.154c-1.499.845-3.07 1.269-4.716 1.269-2.479 0-4.591-.866-6.341-2.594-1.747-1.744-2.618-3.845-2.618-6.309 0-2.207.729-4.176 2.188-5.906 1.797-2.117 4.122-3.177 6.973-3.177 1.556 0 3.061.423 4.514 1.27M220.42 158.075l-2.571-5.893-2.695 5.893h5.266zm1.068 2.46h-7.422l-1.93 4.209h-2.82l8.578-18.421 8.274 18.42h-2.863l-1.817-4.208M228.334 164.744V146.23l12.641 13.225V147.41h2.618v18.39l-12.643-13.191v12.135h-2.616M256.996 158.075l-2.572-5.893-2.694 5.893h5.266zm1.067 2.46h-7.42l-1.932 4.209h-2.817l8.575-18.421 8.274 18.42h-2.863l-1.817-4.208M267.526 162.285h1.178c1.175 0 2.152-.122 2.932-.37a5.987 5.987 0 0 0 2.109-1.246c1.286-1.177 1.93-2.705 1.93-4.592 0-1.9-.634-3.443-1.906-4.626-1.145-1.054-2.834-1.582-5.065-1.582h-1.178v12.416zm-2.616 2.459V147.41h3.638c1.743 0 3.12.173 4.13.516a7.718 7.718 0 0 1 2.952 1.718c1.79 1.632 2.685 3.776 2.685 6.434 0 2.665-.934 4.817-2.796 6.465-.936.825-1.915 1.397-2.94 1.718-.96.32-2.319.483-4.076.483h-3.593M281.605 147.41h2.615v17.334h-2.615V147.41zM297.5 158.075l-2.57-5.893-2.696 5.893h5.266zm1.067 2.46h-7.42l-1.932 4.209h-2.819l8.578-18.421 8.275 18.42h-2.864l-1.817-4.208M305.415 164.744V146.23l12.64 13.225V147.41h2.616v18.39l-12.639-13.191v12.135h-2.617M124.578 177.46h-6.04v4.164h5.826v2.457h-5.826v8.253h-2.617V175h8.657v2.46M127.608 175h2.617v17.334h-2.617V175zM137.005 175v14.876h5.096v2.458h-7.712V175h2.616M143.976 192.334l3.649-18.636 5.949 13.47 6.163-13.47 3.28 18.636h-2.685l-1.672-10.463-5.131 11.26-4.984-11.272-1.864 10.475h-2.705M182.438 177.46h-6.04v4.164h5.825v2.457h-5.824v8.253h-2.616V175h8.655v2.46M195.031 177.46h-6.947v4.164h6.745v2.457h-6.745v5.795h6.947v2.458h-9.562V175h9.562v2.46M208.268 177.581l-2.122 1.259c-.396-.688-.775-1.137-1.133-1.348-.375-.237-.858-.36-1.45-.36-.725 0-1.328.207-1.805.618-.482.404-.72.914-.72 1.527 0 .846.628 1.527 1.886 2.044l1.73.708c1.406.567 2.435 1.262 3.086 2.082.651.818.978 1.823.978 3.013 0 1.594-.534 2.911-1.597 3.951-1.069 1.049-2.397 1.573-3.984 1.573-1.504 0-2.746-.444-3.727-1.334-.964-.893-1.569-2.147-1.809-3.763l2.65-.584c.122 1.018.332 1.722.63 2.112.539.748 1.325 1.121 2.358 1.121.815 0 1.492-.271 2.03-.819.539-.547.809-1.239.809-2.077 0-.336-.045-.645-.14-.925a2.3 2.3 0 0 0-.438-.775 3.553 3.553 0 0 0-.769-.664 7.343 7.343 0 0 0-1.122-.586l-1.673-.699c-2.372-1.002-3.56-2.471-3.56-4.4 0-1.302.5-2.391 1.494-3.269.995-.882 2.235-1.322 3.716-1.322 1.999 0 3.56.972 4.681 2.917M216.979 177.46v14.874h-2.615V177.46h-3.985V175h10.575v2.46h-3.975M223.289 175h2.616v17.334h-2.616V175zM230.945 175l4.793 12.012 4.86-12.012h2.866l-7.781 18.635L228.08 175h2.864M253.285 185.666l-2.571-5.895-2.694 5.895h5.265zm1.065 2.458h-7.419l-1.932 4.21h-2.818l8.578-18.423 8.275 18.423h-2.864l-1.82-4.21M263.816 175v14.876h5.096v2.458h-7.71V175h2.614M101.547 54.595c0 1.547.52 2.82 1.56 3.819 1.034.997 2.23 1.496 3.584 1.496 1.469 0 2.709-.508 3.719-1.524 1.009-1.029 1.514-2.28 1.514-3.755 0-1.494-.499-2.745-1.497-3.755-.99-1.016-2.218-1.524-3.682-1.524-1.458 0-2.688.508-3.693 1.524-1.003 1.004-1.505 2.244-1.505 3.719zm-2.13-.028c0-1.97.722-3.663 2.167-5.078 1.439-1.415 3.169-2.123 5.189-2.123 1.995 0 3.706.714 5.133 2.141 1.433 1.427 2.15 3.14 2.15 5.142 0 2.013-.72 3.722-2.16 5.126-1.445 1.407-3.188 2.112-5.233 2.112-1.808 0-3.432-.626-4.87-1.877-1.584-1.385-2.377-3.199-2.377-5.443M123.706 49.616h-4.88v3.364h4.708v1.988h-4.708v6.666h-2.112V47.629h6.992v1.987M133.148 49.616h-4.88v3.364h4.707v1.988h-4.707v6.666h-2.113V47.629h6.993v1.987M135.597 47.629h2.112v14.005h-2.111V47.629zM151.424 48.382v2.503c-1.222-1.021-2.487-1.533-3.793-1.533-1.437 0-2.651.518-3.636 1.552-.991 1.027-1.487 2.285-1.487 3.772 0 1.47.496 2.709 1.487 3.719.991 1.01 2.208 1.515 3.646 1.515.744 0 1.375-.121 1.895-.362.292-.122.593-.286.904-.49.311-.206.639-.454.984-.744v2.548c-1.21.683-2.48 1.025-3.809 1.025-2.001 0-3.71-.698-5.125-2.095-1.41-1.408-2.114-3.108-2.114-5.097 0-1.784.589-3.374 1.769-4.771 1.451-1.712 3.329-2.567 5.633-2.567 1.258 0 2.472.342 3.646 1.025M154.09 47.629h2.114v14.005h-2.114V47.629zM166.933 56.246l-2.077-4.762-2.176 4.762h4.253zm.862 1.987H161.8l-1.56 3.4h-2.276l6.929-14.883 6.685 14.884h-2.313l-1.47-3.401M175.441 47.629v12.017h4.117v1.988h-6.23V47.629h2.113M195.212 49.715l-1.715 1.016c-.32-.556-.625-.919-.915-1.087-.302-.194-.69-.292-1.17-.292-.586 0-1.073.167-1.46.5-.387.325-.58.737-.58 1.233 0 .684.508 1.234 1.524 1.651l1.395.571c1.138.46 1.969 1.02 2.495 1.683.526.662.789 1.474.789 2.435 0 1.287-.43 2.351-1.288 3.192-.865.847-1.938 1.27-3.22 1.27-1.213 0-2.218-.36-3.01-1.078-.78-.72-1.266-1.734-1.46-3.04l2.14-.47c.097.821.267 1.39.508 1.703.435.605 1.071.908 1.905.908.659 0 1.205-.22 1.641-.661.435-.443.653-1.002.653-1.679 0-.271-.038-.521-.114-.749a1.867 1.867 0 0 0-.354-.625 2.784 2.784 0 0 0-.621-.536 6.004 6.004 0 0 0-.906-.475l-1.351-.563c-1.917-.81-2.875-1.995-2.875-3.556 0-1.052.402-1.932 1.206-2.639.805-.713 1.806-1.07 3.002-1.07 1.614 0 2.874.787 3.782 2.358M205.851 49.616h-5.615v3.364h5.453v1.988h-5.453v4.678h5.615v1.988h-7.727V47.629h7.727v1.987M210.74 47.629v12.017h4.119v1.988h-6.233V47.629h2.114M224.59 49.616h-5.614v3.364h5.45v1.988h-5.45v4.678h5.614v1.988h-7.728V47.629h7.728v1.987M237.714 48.382v2.503c-1.221-1.021-2.484-1.533-3.79-1.533-1.44 0-2.651.518-3.638 1.552-.991 1.027-1.487 2.285-1.487 3.772 0 1.47.496 2.709 1.487 3.719.992 1.01 2.207 1.515 3.647 1.515.742 0 1.375-.121 1.895-.362a5.49 5.49 0 0 0 .902-.49c.311-.206.64-.454.984-.744v2.548c-1.209.683-2.479 1.025-3.809 1.025-2.002 0-3.71-.698-5.125-2.095-1.409-1.408-2.112-3.108-2.112-5.097 0-1.784.588-3.374 1.767-4.771 1.451-1.712 3.329-2.567 5.634-2.567 1.257 0 2.471.342 3.645 1.025M244.245 49.616v12.018h-2.114V49.616h-3.22V47.63h8.544v1.987h-3.21M249.342 47.629h2.113v14.005h-2.113V47.629zM256.254 54.595c0 1.547.52 2.82 1.56 3.819 1.033.997 2.227 1.496 3.582 1.496 1.469 0 2.709-.508 3.719-1.524 1.009-1.029 1.515-2.28 1.515-3.755 0-1.494-.5-2.745-1.498-3.755-.99-1.016-2.218-1.524-3.682-1.524-1.458 0-2.688.508-3.691 1.524-1.004 1.004-1.505 2.244-1.505 3.719zm-2.132-.028c0-1.97.723-3.663 2.167-5.078 1.44-1.415 3.169-2.123 5.189-2.123 1.995 0 3.706.714 5.133 2.141 1.434 1.427 2.15 3.14 2.15 5.142 0 2.013-.72 3.722-2.159 5.126-1.444 1.407-3.19 2.112-5.233 2.112-1.809 0-3.431-.626-4.871-1.877-1.583-1.385-2.375-3.199-2.375-5.443M271.419 61.634V46.676l10.212 10.685V47.63h2.114v14.857L273.531 51.83v9.805h-2.112M131.216 123.396h19.05v7.256H115.91l17.759-21.503a192.735 192.735 0 0 0 4.39-5.565c1.18-1.569 2.08-2.883 2.7-3.944 1.258-2.075 1.888-3.941 1.888-5.597 0-2.387-.84-4.385-2.517-5.998-1.68-1.612-3.755-2.419-6.229-2.419-5.169 0-8.129 3.059-8.88 9.178h-7.686c1.236-10.779 6.681-16.168 16.333-16.168 4.66 0 8.57 1.479 11.73 4.439 3.18 2.96 4.77 6.626 4.77 11 0 2.782-.74 5.511-2.22 8.184-.75 1.391-1.85 3.042-3.297 4.952-1.446 1.912-3.274 4.169-5.482 6.777l-7.952 9.408M166.566 104.776c0 5.677.984 10.393 2.949 14.148 1.966 3.688 4.472 5.532 7.521 5.532 3.026 0 5.533-1.844 7.521-5.532 1.988-3.668 2.982-8.294 2.982-13.883 0-5.587-.994-10.226-2.982-13.915-1.988-3.666-4.495-5.5-7.52-5.5-3.005 0-5.5 1.834-7.488 5.5-1.989 3.645-2.983 8.195-2.983 13.65zm-7.586-.032c0-8.151 1.899-14.656 5.699-19.515 3.401-4.395 7.52-6.593 12.357-6.593 4.838 0 8.956 2.198 12.358 6.593 3.8 4.859 5.698 11.474 5.698 19.846 0 8.349-1.898 14.953-5.698 19.811-3.402 4.397-7.51 6.594-12.325 6.594-4.815 0-8.945-2.197-12.39-6.594-3.8-4.858-5.699-11.572-5.699-20.142M211.127 86.72h-8.845l4.242-7.222h12.324v51.154h-7.72V86.72M240.384 95.167c0 2.762.939 5.082 2.816 6.96 1.899 1.898 4.185 2.848 6.857 2.848 2.673 0 4.948-.939 6.825-2.816 1.9-1.899 2.85-4.185 2.85-6.858 0-2.672-.95-4.959-2.85-6.859-1.877-1.877-4.163-2.816-6.857-2.816-2.651 0-4.915.939-6.793 2.816-1.9 1.9-2.848 4.142-2.848 6.725zm3.975 37.24l-5.665-4.207 12.225-16.665c-.663.089-1.225.155-1.689.199-.464.045-.84.066-1.127.066-4.13 0-7.71-1.579-10.734-4.737-3.005-3.137-4.507-6.914-4.507-11.332 0-4.705 1.668-8.723 5.003-12.06 3.357-3.356 7.377-5.035 12.059-5.035 4.661 0 8.715 1.657 12.16 4.969 3.446 3.291 5.169 7.179 5.169 11.662 0 3.977-1.68 8.273-5.037 12.89l-17.857 24.25" fill="#fff">
</path>
</svg>